<svg width="56" height="56" viewBox="0 0 56 56" fill="none" xmlns="http://www.w3.org/2000/svg">
<rect width="56" height="56" rx="16" fill="#FFE8B3"/>
<path d="M29.8585 11.6673C27.145 11.6304 24.7908 13.8606 24.8549 16.5736C24.8763 17.4807 25.1509 18.3241 25.61 19.0382C26.0925 19.7886 26.1032 20.7233 25.6183 21.4722C25.1348 22.2189 24.8535 23.1083 24.8535 24.0645C24.8535 25.0207 25.1347 25.9099 25.6182 26.6566C26.1035 27.4063 26.0912 28.3415 25.6086 29.093C25.1536 29.8016 24.8801 30.6374 24.8554 31.5364C24.778 34.3431 27.2287 36.5385 30.0353 36.4576C37.8215 36.233 40.1829 29.2732 40.1829 24.0645C40.1829 18.8135 38.3325 11.7827 29.8585 11.6673Z" fill="white"/>
<path d="M29.8861 37.1263C28.3444 37.1263 26.8525 36.5145 25.7696 35.4329C24.7098 34.3744 24.1481 32.984 24.1888 31.5181C24.2158 30.5282 24.5129 29.5651 25.0475 28.7327C25.3918 28.1968 25.3957 27.5401 25.0583 27.0189C24.4878 26.138 24.1865 25.1166 24.1865 24.0646C24.1865 23.0126 24.4882 21.9912 25.0586 21.11C25.396 20.5887 25.3924 19.9327 25.0488 19.3988C24.5093 18.5596 24.2116 17.5883 24.1882 16.5893C24.1537 15.14 24.715 13.7561 25.7686 12.6921C26.8528 11.5968 28.3503 10.9717 29.8669 11.001C39.7785 11.1357 40.8487 20.1817 40.8487 24.0646C40.8487 29.9451 38.0217 36.8939 30.054 37.1237C29.9981 37.1253 29.9418 37.1263 29.8861 37.1263V37.1263ZM29.7921 12.3335C28.6516 12.3335 27.5332 12.804 26.7155 13.6298C25.9192 14.4339 25.4949 15.4739 25.5203 16.5581C25.5382 17.3117 25.7631 18.0448 26.1701 18.6777C26.8004 19.6581 26.8033 20.8676 26.1773 21.8343C25.7468 22.4991 25.5193 23.2703 25.5193 24.0646C25.5193 24.8589 25.7468 25.6301 26.177 26.2945C26.8027 27.2606 26.7998 28.4711 26.1688 29.4531C25.7657 30.0808 25.5415 30.8078 25.521 31.5545C25.4907 32.6508 25.9137 33.693 26.7116 34.4899C27.5755 35.3525 28.7778 35.8273 30.0156 35.7915C39.0577 35.5309 39.5159 25.9769 39.5159 24.0646C39.5159 19.7326 38.2598 12.448 29.8487 12.3338C29.8298 12.3335 29.811 12.3335 29.7921 12.3335V12.3335Z" fill="#FFB201"/>
<path d="M16.6664 44.3207C16.2984 44.3207 16 44.0223 16 43.6543V31.2832C16 25.427 20.7644 20.6626 26.6206 20.6626H29.0379C29.4059 20.6626 29.7043 20.961 29.7043 21.329C29.7043 21.697 29.4059 21.9954 29.0379 21.9954H26.6206C21.4992 21.9954 17.3328 26.1618 17.3328 31.2832V43.6543C17.3328 44.0223 17.0344 44.3207 16.6664 44.3207V44.3207Z" fill="#FFB201"/>
<path d="M21.0756 44.3208C20.7076 44.3208 20.4092 44.0224 20.4092 43.6544V31.9229C20.4092 28.4581 23.2277 25.6396 26.6925 25.6396H29.0386C29.4067 25.6396 29.7051 25.9379 29.7051 26.306C29.7051 26.674 29.4067 26.9724 29.0386 26.9724H26.6925C23.9628 26.9724 21.742 29.1932 21.742 31.9229V43.6544C21.742 44.0224 21.4436 44.3208 21.0756 44.3208V44.3208Z" fill="#FFB201"/>
</svg>
