<svg width="228" height="227" viewBox="0 0 228 227" fill="none" xmlns="http://www.w3.org/2000/svg">
<path d="M-43.3336 114.538C-35.7218 100.98 -24.1099 90.1036 -10.0843 83.3934C3.94134 76.6831 19.6966 74.4667 35.0292 77.0469C50.3618 79.6271 64.5239 86.8781 75.5807 97.8094C86.6376 108.741 94.0499 122.819 96.8051 138.121C99.5603 153.423 97.5241 169.203 90.9744 183.304C84.4248 197.405 73.6813 209.141 60.2117 216.907C46.742 224.673 31.2031 228.091 15.7178 226.695C0.232479 225.298 -14.444 219.155 -26.3066 209.103L0.228692 177.785C5.64182 182.372 12.3389 185.175 19.4052 185.813C26.4714 186.45 33.562 184.89 39.7085 181.346C45.8549 177.803 50.7574 172.447 53.7461 166.013C56.7348 159.578 57.664 152.378 56.4067 145.395C55.1495 138.412 51.7671 131.988 46.7217 127C41.6762 122.012 35.2138 118.703 28.2173 117.526C21.2208 116.348 14.0314 117.36 7.63124 120.422C1.23111 123.484 -4.0676 128.447 -7.54099 134.634L-43.3336 114.538Z" fill="#FFE8B3"/>
<path d="M228 75C228 95.0238 220.046 114.228 205.887 128.387C191.728 142.546 172.524 150.5 152.5 150.5C132.476 150.5 113.272 142.546 99.1134 128.387C84.9545 114.228 77 95.0239 77 75L152.5 75L228 75Z" fill="#AFD5E2"/>
<path d="M2 75.5C2 55.4762 9.95444 36.2724 24.1134 22.1134C38.2724 7.95444 57.4761 -4.3671e-06 77.5 -7.62939e-06C97.5238 -1.08917e-05 116.728 7.95443 130.887 22.1134C145.046 36.2724 153 55.4761 153 75.5L77.5 75.5L2 75.5Z" fill="#5CBEDE"/>
</svg>
