<svg width="228" height="227" viewBox="0 0 228 227" fill="none" xmlns="http://www.w3.org/2000/svg">
<path d="M271.334 112.462C263.722 126.02 252.11 136.896 238.084 143.607C224.059 150.317 208.303 152.533 192.971 149.953C177.638 147.373 163.476 140.122 152.419 129.191C141.362 118.259 133.95 104.181 131.195 88.879C128.44 73.5769 130.476 57.7973 137.026 43.6959C143.575 29.5946 154.319 17.8592 167.788 10.093C181.258 2.32678 196.797 -1.09146 212.282 0.305242C227.768 1.70194 242.444 7.84546 254.307 17.8965L227.771 49.2145C222.358 44.6281 215.661 41.8247 208.595 41.1873C201.529 40.55 194.438 42.1098 188.292 45.6537C182.145 49.1975 177.243 54.5526 174.254 60.9873C171.265 67.4219 170.336 74.6224 171.593 81.6051C172.851 88.5877 176.233 95.0119 181.278 100C186.324 104.988 192.786 108.297 199.783 109.474C206.779 110.652 213.969 109.64 220.369 106.578C226.769 103.516 232.068 98.5529 235.541 92.3664L271.334 112.462Z" fill="#FFE8B3"/>
<path d="M0 152C-1.75054e-06 131.976 7.95444 112.772 22.1134 98.6134C36.2724 84.4544 55.4761 76.5 75.5 76.5C95.5238 76.5 114.728 84.4544 128.887 98.6134C143.046 112.772 151 131.976 151 152L75.5 152L0 152Z" fill="#AFD5E2"/>
<path d="M226 151.5C226 171.524 218.046 190.728 203.887 204.887C189.728 219.046 170.524 227 150.5 227C130.476 227 111.272 219.046 97.1134 204.887C82.9545 190.728 75 171.524 75 151.5L150.5 151.5L226 151.5Z" fill="#5CBEDE"/>
</svg>
