<svg width="173" height="139" viewBox="0 0 173 139" fill="none" xmlns="http://www.w3.org/2000/svg">
<g opacity="0.3">
<path d="M166.147 70.1358C161.486 61.834 154.376 55.1737 145.787 51.0648C137.199 46.9559 127.551 45.5987 118.163 47.1786C108.774 48.7586 100.102 53.1986 93.3316 59.8922C86.5611 66.5858 82.0223 75.2065 80.3352 84.5765C78.6481 93.9465 79.895 103.609 83.9055 112.244C87.9161 120.878 94.4947 128.064 102.743 132.82C110.991 137.575 120.506 139.668 129.988 138.813C139.47 137.958 148.457 134.196 155.721 128.041L139.472 108.864C136.158 111.673 132.057 113.389 127.73 113.78C123.403 114.17 119.061 113.215 115.297 111.045C111.534 108.875 108.532 105.596 106.702 101.656C104.872 97.7154 104.303 93.3062 105.073 89.0305C105.842 84.7548 107.914 80.8211 111.003 77.7667C114.093 74.7123 118.05 72.6862 122.334 71.9653C126.618 71.2443 131.02 71.8636 134.939 73.7386C138.858 75.6136 142.103 78.6528 144.23 82.441L166.147 70.1358Z" fill="#FFE8B3"/>
<path d="M0 45.9253C-1.07192e-06 58.1866 4.87078 69.9457 13.5408 78.6157C22.2109 87.2858 33.97 92.1566 46.2313 92.1566C58.4926 92.1566 70.2517 87.2858 78.9217 78.6157C87.5918 69.9457 92.4625 58.1866 92.4626 45.9253L46.2313 45.9253L0 45.9253Z" fill="#AFD5E2"/>
<path d="M138.388 46.2314C138.388 33.9701 133.517 22.211 124.847 13.541C116.177 4.87095 104.418 0.000167847 92.1564 0.000164032C79.8951 0.000164032 68.136 4.87094 59.4659 13.541C50.7959 22.211 45.9251 33.9701 45.9251 46.2314L92.1564 46.2314L138.388 46.2314Z" fill="#5CBEDE"/>
</g>
</svg>
