<svg width="173" height="139" viewBox="0 0 173 139" fill="none" xmlns="http://www.w3.org/2000/svg">
<g opacity="0.3">
<path d="M166.147 68.8642C161.486 77.166 154.376 83.8263 145.787 87.9352C137.199 92.0441 127.551 93.4013 118.163 91.8214C108.774 90.2414 100.102 85.8014 93.3316 79.1078C86.5611 72.4142 82.0223 63.7935 80.3352 54.4235C78.6481 45.0535 79.895 35.3911 83.9055 26.7564C87.9161 18.1216 94.4947 10.9356 102.743 6.18012C110.991 1.42461 120.506 -0.668488 129.988 0.18676C139.47 1.04201 148.457 4.8039 155.721 10.9585L139.472 30.1356C136.158 27.3272 132.057 25.6106 127.73 25.2203C123.403 24.83 119.061 25.7851 115.297 27.9552C111.534 30.1252 108.532 33.4043 106.702 37.3445C104.872 41.2846 104.303 45.6938 105.073 49.9695C105.842 54.2452 107.914 58.1789 111.003 61.2333C114.093 64.2877 118.05 66.3138 122.334 67.0347C126.618 67.7557 131.02 67.1364 134.939 65.2614C138.858 63.3864 142.103 60.3472 144.23 56.559L166.147 68.8642Z" fill="#FFE8B3"/>
<path d="M0 93.0747C-1.07192e-06 80.8134 4.87078 69.0543 13.5408 60.3843C22.2109 51.7142 33.97 46.8434 46.2313 46.8434C58.4926 46.8434 70.2517 51.7142 78.9217 60.3843C87.5918 69.0543 92.4625 80.8134 92.4626 93.0747L46.2313 93.0747L0 93.0747Z" fill="#AFD5E2"/>
<path d="M138.388 92.7686C138.388 105.03 133.517 116.789 124.847 125.459C116.177 134.129 104.418 139 92.1564 139C79.8951 139 68.136 134.129 59.4659 125.459C50.7959 116.789 45.9251 105.03 45.9251 92.7686L92.1564 92.7686L138.388 92.7686Z" fill="#5CBEDE"/>
</g>
</svg>
