<svg width="20" height="20" viewBox="0 0 20 20" fill="none" xmlns="http://www.w3.org/2000/svg">
<path d="M3.33334 9.77136C3.33334 9.45495 3.56847 9.19345 3.87353 9.15207L3.95834 9.14636H16.4583C16.8035 9.14636 17.0833 9.42618 17.0833 9.77136C17.0833 10.0878 16.8482 10.3493 16.5432 10.3907L16.4583 10.3964H3.95834C3.61317 10.3964 3.33334 10.1165 3.33334 9.77136Z" fill="white"/>
<path d="M10.9759 5.19393C10.7312 4.95038 10.7304 4.55465 10.9739 4.31005C11.1954 4.08768 11.5425 4.06676 11.7876 4.24778L11.8578 4.30814L16.8995 9.32814C17.1225 9.55022 17.1428 9.89864 16.9604 10.1437L16.8995 10.2139L11.8579 15.2347C11.6133 15.4783 11.2176 15.4775 10.974 15.2329C10.7526 15.0105 10.7331 14.6633 10.9152 14.419L10.9758 14.349L15.5725 9.77079L10.9759 5.19393Z" fill="white"/>
</svg>
