<svg width="20" height="20" viewBox="0 0 20 20" fill="none" xmlns="http://www.w3.org/2000/svg">
<path d="M3.33333 9.77148C3.33333 9.45507 3.56846 9.19358 3.87352 9.15219L3.95833 9.14648H16.4583C16.8035 9.14648 17.0833 9.42631 17.0833 9.77148C17.0833 10.0879 16.8482 10.3494 16.5431 10.3908L16.4583 10.3965H3.95833C3.61315 10.3965 3.33333 10.1167 3.33333 9.77148Z" fill="#0B304F"/>
<path d="M10.9758 5.19405C10.7312 4.9505 10.7304 4.55477 10.9739 4.31017C11.1954 4.0878 11.5425 4.06688 11.7876 4.2479L11.8578 4.30826L16.8995 9.32827C17.1225 9.55034 17.1428 9.89877 16.9603 10.1438L16.8995 10.214L11.8579 15.2348C11.6133 15.4784 11.2175 15.4776 10.974 15.233C10.7525 15.0107 10.7331 14.6634 10.9151 14.4191L10.9758 14.3491L15.5725 9.77091L10.9758 5.19405Z" fill="#0B304F"/>
</svg>
