<svg width="20" height="20" viewBox="0 0 20 20" fill="none" xmlns="http://www.w3.org/2000/svg">
<path d="M3.33333 9.77142C3.33333 9.455 3.56846 9.19351 3.87352 9.15212L3.95833 9.14642H16.4583C16.8035 9.14642 17.0833 9.42624 17.0833 9.77142C17.0833 10.0878 16.8482 10.3493 16.5431 10.3907L16.4583 10.3964H3.95833C3.61315 10.3964 3.33333 10.1166 3.33333 9.77142Z" fill="#0B304F"/>
<path d="M10.9758 5.19397C10.7312 4.95042 10.7304 4.5547 10.9739 4.31009C11.1953 4.08773 11.5425 4.06681 11.7876 4.24782L11.8578 4.30819L16.8995 9.32819C17.1225 9.55026 17.1428 9.89869 16.9603 10.1438L16.8995 10.2139L11.8579 15.2348C11.6133 15.4783 11.2175 15.4775 10.974 15.2329C10.7525 15.0106 10.7331 14.6633 10.9151 14.419L10.9758 14.3491L15.5725 9.77083L10.9758 5.19397Z" fill="#0B304F"/>
</svg>
