<svg width="20" height="20" viewBox="0 0 20 20" fill="none" xmlns="http://www.w3.org/2000/svg">
<path fill-rule="evenodd" clip-rule="evenodd" d="M9.99967 8.03442C8.89133 8.03442 7.9905 8.93609 7.9905 10.0444C7.9905 11.1519 8.89133 12.0528 9.99967 12.0528C11.108 12.0528 12.0097 11.1519 12.0097 10.0444C12.0097 8.93609 11.108 8.03442 9.99967 8.03442ZM9.99967 13.3028C8.20217 13.3028 6.7405 11.8411 6.7405 10.0444C6.7405 8.24692 8.20217 6.78442 9.99967 6.78442C11.7972 6.78442 13.2597 8.24692 13.2597 10.0444C13.2597 11.8411 11.7972 13.3028 9.99967 13.3028Z" fill="#AFB7BF"/>
<mask id="mask0_1551_12742" style="mask-type:alpha" maskUnits="userSpaceOnUse" x="1" y="3" width="18" height="14">
<path fill-rule="evenodd" clip-rule="evenodd" d="M1.66679 3.3335H18.3333V16.7543H1.66679V3.3335Z" fill="white"/>
</mask>
<g mask="url(#mask0_1551_12742)">
<path fill-rule="evenodd" clip-rule="evenodd" d="M2.97492 10.0436C4.52492 13.4678 7.13575 15.5036 9.99992 15.5045C12.8641 15.5036 15.4749 13.4678 17.0249 10.0436C15.4749 6.6203 12.8641 4.58447 9.99992 4.58363C7.13659 4.58447 4.52492 6.6203 2.97492 10.0436ZM10.0016 16.7545H9.99825H9.99742C6.55075 16.752 3.45575 14.3361 1.71742 10.2903C1.64992 10.1328 1.64992 9.95447 1.71742 9.79697C3.45575 5.75197 6.55159 3.33613 9.99742 3.33363C9.99909 3.3328 9.99909 3.3328 9.99992 3.33363C10.0016 3.3328 10.0016 3.3328 10.0024 3.33363C13.4491 3.33613 16.5441 5.75197 18.2824 9.79697C18.3508 9.95447 18.3508 10.1328 18.2824 10.2903C16.5449 14.3361 13.4491 16.752 10.0024 16.7545H10.0016Z" fill="#AFB7BF"/>
</g>
</svg>
