<svg width="14" height="14" viewBox="0 0 14 14" fill="none" xmlns="http://www.w3.org/2000/svg">
<path d="M13.5108 12.7259L10.1974 9.41256C11.1003 8.30824 11.5443 6.89912 11.4374 5.47666C11.3305 4.0542 10.681 2.72723 9.62317 1.77023C8.56536 0.813238 7.18018 0.299427 5.75416 0.335082C4.32814 0.370737 2.97037 0.95313 1.9617 1.9618C0.953038 2.97046 0.370646 4.32823 0.334991 5.75425C0.299336 7.18027 0.813146 8.56545 1.77014 9.62326C2.72714 10.6811 4.05411 11.3306 5.47656 11.4375C6.89902 11.5443 8.30815 11.1004 9.41246 10.1975L12.7259 13.5109C12.8305 13.612 12.9708 13.6679 13.1163 13.6667C13.2619 13.6654 13.4011 13.607 13.504 13.5041C13.6069 13.4012 13.6653 13.2619 13.6666 13.1164C13.6678 12.9709 13.6119 12.8306 13.5108 12.7259ZM5.90201 10.3429C5.02371 10.3429 4.16513 10.0825 3.43484 9.59449C2.70456 9.10653 2.13537 8.41297 1.79925 7.60152C1.46314 6.79008 1.3752 5.89718 1.54655 5.03575C1.7179 4.17432 2.14084 3.38305 2.7619 2.76199C3.38295 2.14093 4.17423 1.71799 5.03566 1.54664C5.89709 1.37529 6.78998 1.46323 7.60143 1.79935C8.41288 2.13546 9.10644 2.70465 9.5944 3.43493C10.0824 4.16522 10.3428 5.0238 10.3428 5.90211C10.3415 7.07947 9.8732 8.20824 9.04067 9.04076C8.20815 9.87329 7.07938 10.3416 5.90201 10.3429Z" fill="#0B304F"/>
</svg>
