<svg width="56" height="56" viewBox="0 0 56 56" fill="none" xmlns="http://www.w3.org/2000/svg">
<rect width="56" height="56" rx="16" fill="#BCEBE9"/>
<path d="M38.3687 41.7272H17.6313V40.5751C17.6313 39.7493 18.3007 39.0798 19.1265 39.0798H36.8734C37.6993 39.0798 38.3687 39.7493 38.3687 40.5751V41.7272Z" fill="white"/>
<path d="M38.3686 42.299H17.6314C17.3155 42.299 17.0594 42.0429 17.0594 41.727V40.575C17.0594 39.4353 17.9869 38.5078 19.1266 38.5078H36.8734C38.0131 38.5078 38.9406 39.4353 38.9406 40.575V41.727C38.9406 42.0429 38.6845 42.299 38.3686 42.299ZM18.2033 41.1551H37.7967V40.575C37.7967 40.0659 37.3825 39.6517 36.8734 39.6517H19.1266C18.6175 39.6517 18.2033 40.0659 18.2033 40.575V41.1551Z" fill="#1EBCB4"/>
<path d="M29.9927 39.0797H19.0602L22.0999 33.8025C22.4031 33.2761 22.9644 32.9517 23.5719 32.9517H25.481C26.0885 32.9517 26.6498 33.2761 26.953 33.8025L29.9927 39.0797Z" fill="white"/>
<path d="M29.9926 39.6517H19.0601C18.856 39.6517 18.6672 39.5428 18.565 39.366C18.4628 39.1892 18.4625 38.9714 18.5644 38.7943L21.6041 33.5171C22.0085 32.8156 22.7622 32.3796 23.5718 32.3796H25.481C26.2906 32.3796 27.0443 32.8156 27.4487 33.5171L30.4884 38.7943C30.5903 38.9714 30.59 39.1892 30.4878 39.366C30.3856 39.5428 30.1968 39.6517 29.9926 39.6517ZM20.0496 38.5078H29.0032L26.4573 34.088C26.2568 33.74 25.8826 33.5235 25.481 33.5235H23.5718C23.1702 33.5235 22.796 33.74 22.5955 34.088L20.0496 38.5078Z" fill="#1EBCB4"/>
<path d="M23.0792 21.8746V24.2254H22.8046C21.5463 24.2254 20.5226 25.2491 20.5226 26.5075V31.5521C20.5226 32.5816 21.2032 33.451 22.1412 33.737L20.9515 35.8017C19.3157 35.0811 18.1718 33.451 18.1718 31.5521V26.5075C18.1718 23.9508 20.248 21.8746 22.8046 21.8746H23.0792Z" fill="white"/>
<path d="M20.9511 36.3738C20.8737 36.3738 20.7955 36.3582 20.7207 36.3252C18.825 35.4899 17.5998 33.6162 17.5998 31.5521V26.5076C17.5998 23.6378 19.9348 21.3027 22.8047 21.3027H23.0792C23.395 21.3027 23.6511 21.5588 23.6511 21.8747V24.2253C23.6511 24.5412 23.395 24.7973 23.0792 24.7973H22.8047C21.8615 24.7973 21.0944 25.5645 21.0944 26.5076V31.5521C21.0944 32.3104 21.582 32.9686 22.3078 33.1901C22.4745 33.2409 22.6092 33.3649 22.6731 33.5272C22.7371 33.6891 22.7237 33.8718 22.6365 34.0229L21.4468 36.0873C21.3418 36.2696 21.1499 36.3738 20.9511 36.3738ZM22.5072 22.4575C20.4062 22.6103 18.7437 24.3683 18.7437 26.5076V31.5521C18.7437 32.9918 19.5081 34.3133 20.7282 35.0436L21.3301 33.9988C20.4842 33.492 19.9505 32.5768 19.9505 31.5521V26.5076C19.9505 25.0341 21.0726 23.8179 22.5072 23.6687V22.4575Z" fill="#1EBCB4"/>
<path d="M35.9174 36.1219H27.9595C27.6437 36.1219 27.3876 35.8658 27.3876 35.55C27.3876 35.2341 27.6437 34.978 27.9595 34.978H35.9174C36.2333 34.978 36.4894 35.2341 36.4894 35.55C36.4894 35.8658 36.2333 36.1219 35.9174 36.1219Z" fill="#1EBCB4"/>
<path d="M34.0055 28.8009H30.2796C29.4403 28.8009 28.7599 28.1204 28.7599 27.2811V18.3096H35.5253V27.2811C35.5253 28.1204 34.8448 28.8009 34.0055 28.8009Z" fill="white"/>
<path d="M34.0055 29.373H30.2797C29.1263 29.373 28.188 28.4346 28.188 27.2812V18.3095C28.188 17.9936 28.4441 17.7375 28.7599 17.7375H35.5253C35.8412 17.7375 36.0973 17.9936 36.0973 18.3095V27.2812C36.0973 28.4346 35.1589 29.373 34.0055 29.373ZM29.3319 18.8815V27.2812C29.3319 27.8037 29.7572 28.2291 30.2797 28.2291H34.0055C34.5281 28.2291 34.9534 27.8037 34.9534 27.2812V18.8815H29.3319Z" fill="#1EBCB4"/>
<path d="M30.1571 28.8011H34.1281V31.4896H30.1571V28.8011Z" fill="#C4E0FF"/>
<path d="M34.1281 32.0609H30.1571C29.8413 32.0609 29.5852 31.8048 29.5852 31.489V28.801C29.5852 28.4851 29.8413 28.229 30.1571 28.229H34.1281C34.444 28.229 34.7001 28.4851 34.7001 28.801V31.489C34.7001 31.8048 34.444 32.0609 34.1281 32.0609ZM30.7291 30.917H33.5562V29.3729H30.7291V30.917Z" fill="#1EBCB4"/>
<path d="M29.3116 14.2732H34.9743V16.2916H29.3116V14.2732Z" fill="#E7EEF9"/>
<path d="M34.9738 16.8634H29.3115C28.9956 16.8634 28.7395 16.6073 28.7395 16.2914V14.2731C28.7395 13.9573 28.9956 13.7012 29.3115 13.7012H34.9738C35.2896 13.7012 35.5457 13.9573 35.5457 14.2731V16.2914C35.5457 16.6073 35.2896 16.8634 34.9738 16.8634ZM29.8834 15.7195H34.4018V14.8451H29.8834V15.7195Z" fill="#1EBCB4"/>
<path d="M30.1692 16.2916H34.1155V18.3101H30.1692V16.2916Z" fill="#C4E0FF"/>
<path d="M34.1158 18.8814H30.1694C29.8536 18.8814 29.5975 18.6253 29.5975 18.3095V16.2914C29.5975 15.9756 29.8536 15.7195 30.1694 15.7195H34.1158C34.4317 15.7195 34.6878 15.9756 34.6878 16.2914V18.3095C34.6878 18.6253 34.4317 18.8814 34.1158 18.8814ZM30.7414 17.7375H33.5439V16.8634H30.7414V17.7375Z" fill="#1EBCB4"/>
<path d="M23.081 21.8717C23.4963 21.1192 24.2975 20.6095 25.2178 20.6095H28.7599V25.4875H25.2178C23.8708 25.4875 22.7788 24.3955 22.7788 23.0485V23.0485C22.7788 22.6218 22.8884 22.2206 23.081 21.8717Z" fill="white"/>
<path d="M28.7599 26.0596H25.2179C23.5576 26.0596 22.207 24.7087 22.207 23.0485C22.207 22.5405 22.336 22.038 22.5801 21.5957V21.5954C23.1108 20.6344 24.1214 20.0376 25.2179 20.0376H28.7599C29.0758 20.0376 29.3319 20.2937 29.3319 20.6096V25.4876C29.3319 25.8035 29.0758 26.0596 28.7599 26.0596ZM23.5816 22.1484C23.4308 22.422 23.3509 22.7332 23.3509 23.0485C23.3509 24.0781 24.1885 24.9157 25.2179 24.9157H28.188V21.1815H25.2179C24.5378 21.1815 23.9109 21.5521 23.5816 22.1484Z" fill="#1EBCB4"/>
<path d="M24.5262 36.8483C25.1051 36.8483 25.5743 36.379 25.5743 35.8001C25.5743 35.2212 25.1051 34.752 24.5262 34.752C23.9473 34.752 23.478 35.2212 23.478 35.8001C23.478 36.379 23.9473 36.8483 24.5262 36.8483Z" fill="white"/>
<path d="M24.5264 37.4199C23.6333 37.4199 22.9066 36.6932 22.9066 35.8001C22.9066 34.9067 23.6333 34.1801 24.5264 34.1801C25.4198 34.1801 26.1465 34.9067 26.1465 35.8001C26.1465 36.6932 25.4198 37.4199 24.5264 37.4199ZM24.5264 35.324C24.2639 35.324 24.0505 35.5376 24.0505 35.8001C24.0505 36.0626 24.2639 36.276 24.5264 36.276C24.7889 36.276 25.0026 36.0626 25.0026 35.8001C25.0026 35.5376 24.7889 35.324 24.5264 35.324Z" fill="#1EBCB4"/>
</svg>
