<svg width="58" height="67" viewBox="0 0 58 67" fill="none" xmlns="http://www.w3.org/2000/svg">
<g opacity="0.4">
<path d="M80.0853 33.8064C77.8386 29.8049 74.4113 26.5945 70.2716 24.6139C66.1319 22.6334 61.4816 21.9792 56.9561 22.7408C52.4307 23.5023 48.2507 25.6425 44.9872 28.8689C41.7237 32.0953 39.5359 36.2506 38.7227 40.767C37.9095 45.2835 38.5105 49.9409 40.4437 54.103C42.3768 58.2651 45.5478 61.7288 49.5234 64.0211C53.4991 66.3133 58.0854 67.3222 62.656 66.91C67.2265 66.4977 71.5584 64.6844 75.0597 61.7178L67.2277 52.4742C65.63 53.8279 63.6533 54.6553 61.5677 54.8434C59.482 55.0315 57.3892 54.5712 55.575 53.5252C53.7609 52.4792 52.3139 50.8986 51.4318 48.9994C50.5497 47.1002 50.2754 44.9749 50.6465 42.914C51.0176 40.853 52.0159 38.9569 53.5051 37.4846C54.9943 36.0124 56.9017 35.0358 58.9667 34.6883C61.0318 34.3408 63.1538 34.6393 65.0428 35.543C66.9318 36.4468 68.4957 37.9117 69.5209 39.7377L80.0853 33.8064Z" fill="#FFE8B3"/>
<path d="M0 22.1366C-5.16679e-07 28.0467 2.34779 33.7148 6.52687 37.8939C10.706 42.073 16.374 44.4207 22.2841 44.4207C28.1943 44.4207 33.8623 42.073 38.0414 37.8939C42.2205 33.7148 44.5683 28.0467 44.5683 22.1366L22.2841 22.1366L0 22.1366Z" fill="#AFD5E2"/>
<path d="M66.7048 22.2842C66.7048 16.3741 64.357 10.706 60.178 6.52691C55.9989 2.34783 50.3308 3.8147e-05 44.4207 3.62396e-05C38.5106 3.62396e-05 32.8425 2.34782 28.6634 6.52691C24.4843 10.706 22.1366 16.3741 22.1366 22.2842L44.4207 22.2842L66.7048 22.2842Z" fill="#5CBEDE"/>
</g>
</svg>
