<svg width="58" height="67" viewBox="0 0 58 67" fill="none" xmlns="http://www.w3.org/2000/svg">
<g opacity="0.4">
<path d="M-22.1468 33.1936C-19.9002 37.1951 -16.4729 40.4055 -12.3332 42.3861C-8.19345 44.3666 -3.54321 45.0208 0.982271 44.2592C5.50775 43.4977 9.68775 41.3575 12.9512 38.1311C16.2147 34.9047 18.4025 30.7494 19.2157 26.233C20.0289 21.7165 19.4279 17.0591 17.4947 12.897C15.5616 8.73491 12.3906 5.27116 8.41498 2.97894C4.43935 0.686714 -0.147024 -0.322193 -4.71758 0.0900459C-9.28813 0.502289 -13.62 2.31557 -17.1213 5.28218L-9.28925 14.5258C-7.69155 13.1721 -5.71486 12.3447 -3.62924 12.1566C-1.54361 11.9685 0.549227 12.4288 2.36337 13.4748C4.17752 14.5208 5.6245 16.1014 6.50663 18.0006C7.38875 19.8998 7.66301 22.0251 7.29193 24.086C6.92084 26.147 5.92252 28.0431 4.43334 29.5154C2.94416 30.9876 1.03676 31.9642 -1.0283 32.3117C-3.09335 32.6592 -5.21534 32.3607 -7.10436 31.457C-8.99339 30.5532 -10.5573 29.0883 -11.5825 27.2623L-22.1468 33.1936Z" fill="#FFE8B3"/>
<path d="M57.9384 44.8634C57.9384 38.9533 55.5906 33.2852 51.4115 29.1061C47.2324 24.927 41.5643 22.5793 35.6542 22.5793C29.7441 22.5793 24.076 24.927 19.8969 29.1061C15.7179 33.2852 13.3701 38.9533 13.3701 44.8634L35.6542 44.8634L57.9384 44.8634Z" fill="#AFD5E2"/>
<path d="M-8.76648 44.7158C-8.76648 50.6259 -6.41869 56.294 -2.23961 60.4731C1.93948 64.6522 7.60754 67 13.5177 67C19.4278 67 25.0958 64.6522 29.2749 60.4731C33.454 56.294 35.8018 50.6259 35.8018 44.7158L13.5177 44.7158L-8.76648 44.7158Z" fill="#5CBEDE"/>
</g>
</svg>
