<svg width="281" height="227" viewBox="0 0 281 227" fill="none" xmlns="http://www.w3.org/2000/svg">
<path d="M271.334 114.538C263.722 100.98 252.11 90.1036 238.084 83.3934C224.059 76.6831 208.303 74.4667 192.971 77.0469C177.638 79.6271 163.476 86.8781 152.419 97.8094C141.362 108.741 133.95 122.819 131.195 138.121C128.44 153.423 130.476 169.203 137.026 183.304C143.575 197.405 154.319 209.141 167.788 216.907C181.258 224.673 196.797 228.091 212.282 226.695C227.768 225.298 242.444 219.155 254.307 209.103L227.771 177.785C222.358 182.372 215.661 185.175 208.595 185.813C201.529 186.45 194.438 184.89 188.292 181.346C182.145 177.802 177.243 172.447 174.254 166.013C171.265 159.578 170.336 152.378 171.593 145.395C172.851 138.412 176.233 131.988 181.278 127C186.324 122.012 192.786 118.703 199.783 117.526C206.779 116.348 213.969 117.36 220.369 120.422C226.769 123.484 232.068 128.447 235.541 134.634L271.334 114.538Z" fill="#FFE8B3"/>
<path d="M0 75C-1.75054e-06 95.0238 7.95444 114.228 22.1134 128.387C36.2724 142.546 55.4761 150.5 75.5 150.5C95.5238 150.5 114.728 142.546 128.887 128.387C143.046 114.228 151 95.0239 151 75L75.5 75L0 75Z" fill="#AFD5E2"/>
<path d="M226 75.5C226 55.4762 218.046 36.2724 203.887 22.1134C189.728 7.95444 170.524 -7.62939e-06 150.5 -7.62939e-06C130.476 -7.62939e-06 111.272 7.95444 97.1134 22.1134C82.9545 36.2724 75 55.4761 75 75.5L150.5 75.5L226 75.5Z" fill="#5CBEDE"/>
</svg>
