<svg width="56" height="56" viewBox="0 0 56 56" fill="none" xmlns="http://www.w3.org/2000/svg">
<rect width="56" height="56" rx="16" fill="#F5E2B3"/>
<path d="M39.5344 10H41.395C44.521 17.8479 46.1079 24.1062 46.1 29.8515C46.0923 35.4661 44.5624 40.5114 41.5956 46.0001H39.6139C42.806 40.3419 44.3781 35.3648 44.3857 29.8489C44.3933 24.288 42.8115 18.0907 39.5344 10ZM14.8051 10H16.6657C13.3886 18.0907 11.8068 24.288 11.8144 29.8489C11.822 35.3648 13.3941 40.3419 16.5862 46.0001H14.6045C11.6377 40.5114 10.1078 35.4661 10.1001 29.8515C10.0922 24.1062 11.6791 17.8479 14.8051 10ZM27.243 35.5463V46H28.9573V35.5461L35.9793 28.1731L34.7671 26.9003L28.1 33.9006L21.433 26.9003L20.2208 28.1731L27.243 35.5463Z" fill="#FFB201"/>
<path fill-rule="evenodd" clip-rule="evenodd" d="M29.2532 20.3001L30.8345 18.4553C31.8858 17.2288 31.8388 15.353 30.7276 14.1862C30.3702 13.8109 29.8854 13.6001 29.38 13.6001H26.8202C26.3147 13.6001 25.8299 13.8109 25.4725 14.1862C24.3613 15.353 24.3144 17.2288 25.3656 18.4553L26.9469 20.3001L23.1772 24.698L24.4515 25.9022L28.1001 21.6455L31.7487 25.9022L33.0229 24.698L29.2532 20.3001ZM26.8202 15.4001C26.7694 15.4001 26.7206 15.4213 26.6847 15.459C26.2182 15.9488 26.1985 16.7363 26.6398 17.2511L28.1001 18.9547L29.5603 17.2511C30.0016 16.7363 29.9819 15.9488 29.5154 15.459C29.4795 15.4213 29.4308 15.4001 29.38 15.4001H26.8202Z" fill="#FFB201"/>
</svg>
