<svg width="56" height="56" viewBox="0 0 56 56" fill="none" xmlns="http://www.w3.org/2000/svg">
<rect width="56" height="56" rx="16" fill="#DAD3FF"/>
<path d="M41.2404 44.3306V45.5819C41.2404 45.9156 40.9901 46.1658 40.6564 46.1658H15.5465C15.2128 46.1658 14.8791 45.9156 14.8791 45.5819V44.3306C14.8791 39.9092 17.632 36.0718 21.4694 34.4868C21.7197 34.4034 21.9699 34.3199 22.2202 34.2365C23.2213 33.9028 23.9721 33.2355 24.4726 32.4012H31.5635C32.064 33.2355 32.8148 33.9863 33.8158 34.2365C34.0661 34.3199 34.3164 34.4034 34.5666 34.4868C38.4875 36.0718 41.2404 39.9092 41.2404 44.3306Z" fill="#DAD3FF"/>
<path d="M35.5677 35.321L28.0598 38.6578L20.8855 35.1541C21.1358 35.0707 21.97 34.4033 22.2203 34.3199C23.2213 33.9862 23.9721 33.3188 24.4726 32.4846H31.5635C32.064 33.3188 32.8148 34.0696 33.8159 34.3199C34.1496 34.3199 35.3175 35.2375 35.5677 35.321Z" fill="white"/>
<path d="M35.3175 22.6408H20.8021C20.8021 22.6408 13.8781 10.0441 28.0598 10.0441C42.2415 10.0441 35.3175 22.6408 35.3175 22.6408Z" fill="#DAD3FF"/>
<path d="M35.3174 21.2227V23.2248C35.3174 28.8975 32.0639 33.6525 28.0597 33.6525C24.0554 33.6525 20.802 28.8975 20.802 23.2248V21.2227C24.6394 21.2227 25.7239 16.9681 25.7239 16.9681C25.7239 16.9681 27.9763 21.2227 35.3174 21.2227Z" fill="white"/>
<path d="M34.0661 33.4857C33.4822 33.3188 32.8982 32.9017 32.5645 32.4846C34.6501 30.4825 36.0682 26.6451 36.0682 22.8077C36.5688 21.8066 39.0714 16.551 36.819 12.8805C35.4843 10.5447 32.4811 9.29333 28.0597 9.29333C23.6384 9.29333 20.6352 10.4612 19.217 12.8805C17.0481 16.6345 19.4673 21.8066 19.9678 22.8077C19.9678 26.6451 21.386 30.3991 23.4715 32.4846C23.0544 32.9851 22.5539 33.3188 21.9699 33.4857C17.2983 34.9873 14.1283 39.4086 14.1283 44.3305V45.5818C14.1283 46.3326 14.7122 47 15.5465 47H40.573C41.3238 47 41.9912 46.416 41.9912 45.5818V44.3305C41.9912 39.4086 38.8212 35.0707 34.0661 33.4857ZM20.5518 13.6313C21.6363 11.7126 24.2223 10.7949 28.0597 10.7949C31.8971 10.7949 34.4832 11.7126 35.5677 13.6313C36.819 15.7168 36.1517 18.6366 35.4843 20.4719C28.7271 20.4719 26.4747 16.7179 26.3913 16.551C26.2245 16.3008 25.9742 16.1339 25.6405 16.1339C25.3068 16.1339 25.0566 16.3842 24.9731 16.7179C24.9731 16.8847 23.8052 20.4719 20.6352 20.4719C19.9678 18.72 19.3004 15.8002 20.5518 13.6313ZM21.5528 23.3082V21.9735C23.8052 21.6398 25.2234 19.9713 25.9742 18.5532C27.2255 19.8879 29.8116 21.8066 34.6501 22.0569V23.3916C34.6501 28.6472 31.6469 33.0686 28.1432 33.0686C24.556 32.9851 21.5528 28.5638 21.5528 23.3082ZM24.7229 33.4022C25.7239 34.0696 26.8918 34.4033 28.0597 34.4033C29.2276 34.4033 30.3956 33.9862 31.3966 33.4022C31.9806 34.0696 33.9827 35.0707 34.1495 35.1541L28.0597 37.8236L21.9699 35.1541C22.1368 35.0707 24.1389 34.153 24.7229 33.4022ZM40.4896 45.4984H15.6299V44.4139C15.6299 40.9936 17.3817 37.907 20.2181 36.0717L27.7261 39.3252C27.8095 39.4086 27.8929 39.4086 28.0597 39.4086C28.1432 39.4086 28.2266 39.4086 28.3934 39.3252L35.9014 36.0717C38.6543 37.8236 40.4896 40.9936 40.4896 44.4139V45.4984Z" fill="#A27FFF"/>
<path d="M37.8387 39.8387H36.1613V38.1613C36.1613 37.5161 35.6452 37 35 37C34.3548 37 33.8387 37.5161 33.8387 38.1613V39.8387H32.1613C31.5161 39.8387 31 40.3548 31 41C31 41.6452 31.5161 42.1613 32.1613 42.1613H33.8387V43.8387C33.8387 44.4839 34.3548 45 35 45C35.6452 45 36.1613 44.4839 36.1613 43.8387V42.1613H37.8387C38.4839 42.1613 39 41.6452 39 41C39 40.3548 38.4839 39.8387 37.8387 39.8387Z" fill="white"/>
</svg>
