<svg width="56" height="56" viewBox="0 0 56 56" fill="none" xmlns="http://www.w3.org/2000/svg">
<rect width="56" height="56" rx="16" fill="#DAD3FF"/>
<path d="M32.1596 35.829C34.0597 37.7219 36.0092 39.4171 37.6479 40.6886L34.095 45.2939C33.4805 44.8136 31.0154 42.8711 28.2112 40.1094L24.2769 35.829C20.9995 31.8876 18.1954 27.2328 18.1954 22.8676C18.1954 14.3987 23.5917 11.3896 28.2112 11.3896C32.8377 11.3896 38.2342 14.3987 38.2342 22.8676C38.2342 27.2328 35.4229 31.8876 32.1596 35.829Z" fill="white"/>
<path d="M34.0952 46C33.9386 46 33.7851 45.9479 33.6603 45.8503C32.5287 44.9664 30.2517 43.1105 27.7157 40.6125L23.7567 36.3068C19.5901 31.2969 17.489 26.784 17.489 22.8674C17.489 13.874 23.2649 10.6831 28.2113 10.6831C33.1609 10.6831 38.9406 13.874 38.9406 22.8674C38.9406 26.6374 36.9809 30.9786 33.1136 35.7774C34.7291 37.3536 36.4749 38.8845 38.0808 40.1303C38.3884 40.369 38.445 40.8115 38.2073 41.1198L34.6546 45.7251C34.5394 45.8741 34.3701 45.971 34.1835 45.9945C34.1542 45.9983 34.1245 46 34.0952 46ZM28.2113 12.0958C23.9168 12.0958 18.9017 14.917 18.9017 22.8674C18.9017 26.4453 20.8927 30.6541 24.82 35.3773L28.7314 39.6312C30.8315 41.6989 32.7632 43.3254 33.9728 44.2959L36.6615 40.8104C35.0143 39.4933 33.2595 37.922 31.661 36.3292C31.4026 36.0716 31.383 35.6595 31.6158 35.3784C35.5386 30.6403 37.5279 26.4309 37.5279 22.8674C37.5279 14.917 32.509 12.0958 28.2113 12.0958Z" fill="#A27FFF"/>
<path d="M28.2112 40.1094L24.2769 35.829C20.9995 31.8876 18.1954 27.2328 18.1954 22.8676C18.1954 14.3987 23.5917 11.3896 28.2112 11.3896C32.8377 11.3896 38.2342 14.3987 38.2342 22.8676C38.2342 27.2328 35.4229 31.8876 32.1596 35.829" fill="white"/>
<path d="M28.2117 40.8156C28.0206 40.8156 27.8306 40.7387 27.6912 40.5873L23.7567 36.3068C19.5901 31.2969 17.489 26.784 17.489 22.8674C17.489 13.874 23.2649 10.6831 28.2113 10.6831C33.1609 10.6831 38.9406 13.874 38.9406 22.8674C38.9406 26.7685 36.8423 31.2811 32.7036 36.2792C32.4549 36.58 32.0096 36.6217 31.7092 36.3727C31.4088 36.124 31.3668 35.6788 31.6158 35.3784C35.5386 30.6403 37.5279 26.4309 37.5279 22.8674C37.5279 14.917 32.509 12.0958 28.2113 12.0958C23.9168 12.0958 18.9017 14.917 18.9017 22.8674C18.9017 26.4453 20.8927 30.6541 24.82 35.3773L28.7314 39.6312C28.9953 39.9185 28.9767 40.3652 28.6894 40.6294C28.5538 40.7539 28.3824 40.8156 28.2117 40.8156Z" fill="#A27FFF"/>
<path d="M28.2142 31.4586C27.0147 32.9561 25.6554 34.4463 24.2742 35.8275C22.3696 37.7248 20.4287 39.4185 18.7786 40.6907L22.3406 45.2922C22.9585 44.8124 25.4155 42.8715 28.2142 40.1091C29.5081 38.8443 30.8675 37.3904 32.1614 35.8275" fill="white"/>
<path d="M22.3409 45.9985C22.3116 45.9985 22.2819 45.9968 22.2522 45.993C22.0663 45.9695 21.897 45.873 21.7825 45.7247L18.2205 41.1231C18.1056 40.9748 18.0542 40.7869 18.0784 40.6006C18.1022 40.4147 18.1991 40.2457 18.3474 40.1312C20.076 38.7986 22.0039 37.0924 23.776 35.3269C25.2245 33.8787 26.5327 32.4281 27.6632 31.0171C27.9071 30.7126 28.3516 30.6633 28.6558 30.9074C28.9604 31.1513 29.0097 31.5958 28.7655 31.9C27.6029 33.3517 26.2599 34.8409 24.7737 36.3267C23.1476 37.9467 21.3914 39.5194 19.767 40.8134L22.4626 44.2954C23.5021 43.4608 25.5132 41.7826 27.7181 39.6063C29.1035 38.2522 30.4148 36.8299 31.6174 35.3769C31.8661 35.0765 32.312 35.0348 32.6121 35.2831C32.9125 35.5321 32.9546 35.9773 32.7059 36.2777C31.4712 37.7687 30.1265 39.2276 28.7083 40.6141C25.9412 43.3449 23.4666 45.3122 22.7741 45.8499C22.6496 45.9468 22.4971 45.9985 22.3409 45.9985Z" fill="#A27FFF"/>
<path d="M28.2143 31.4587C25.7864 28.4201 24.0126 25.3161 24.0126 22.8663C24.0126 18.1849 26.2952 17.2035 28.2143 17.2035C30.1334 17.2035 32.416 18.1849 32.416 22.8663C32.416 25.3015 30.6423 28.4128 28.2143 31.4587Z" fill="#DAD3FF"/>
<path d="M28.2141 32.165C27.9992 32.165 27.7964 32.0674 27.6623 31.8995C24.7717 28.2826 23.3063 25.2434 23.3063 22.8664C23.3063 17.3247 26.3814 16.4973 28.2141 16.4973C30.0472 16.4973 33.1223 17.3247 33.1223 22.8664C33.1223 25.2345 31.6568 28.2733 28.7663 31.8991C28.6325 32.0671 28.4293 32.165 28.2145 32.165H28.2141ZM28.2141 17.91C25.8951 17.91 24.719 19.5775 24.719 22.8664C24.719 24.7406 25.9244 27.3028 28.2134 30.3099C30.5038 27.2955 31.7096 24.733 31.7096 22.8664C31.7096 19.5775 30.5335 17.91 28.2141 17.91Z" fill="#A27FFF"/>
</svg>
