<svg width="56" height="56" viewBox="0 0 56 56" fill="none" xmlns="http://www.w3.org/2000/svg">
<rect width="56" height="56" rx="16" fill="#FFE8B3"/>
<path d="M17.82 31.5704C8.38368 27.2547 11.8176 13.3456 18.2718 11.1572C20.949 10.2495 23.9822 13.4834 23.9999 15.4566C24.0175 17.4297 21.8318 19.248 22.3294 21.6966C22.8268 24.1452 23.4098 28.272 22.1411 30.202C20.8725 32.1322 19.5649 32.3685 17.82 31.5704Z" fill="#FFB201"/>
<path fill-rule="evenodd" clip-rule="evenodd" d="M24.0485 25.4435C24.0485 25.4435 24.0503 25.4435 24.0831 24.2218C24.1161 23 24.1179 23 24.1179 23L24.1197 23.0001L24.1234 23.0002L24.1314 23.0006L24.1498 23.0015C24.163 23.0022 24.178 23.0032 24.195 23.0046C24.2286 23.0075 24.2697 23.0119 24.3173 23.0188C24.412 23.0325 24.5341 23.0565 24.6747 23.0985C24.9553 23.1824 25.3209 23.342 25.6839 23.6458C26.4561 24.2924 27 25.4023 27 27.1093V45H24.6777V27.1093C24.6777 25.9812 24.3438 25.6473 24.2383 25.5589C24.1622 25.4952 24.0889 25.4645 24.0403 25.45C24.0163 25.4428 24 25.4403 24 25.4403C24 25.4403 24.0029 25.4408 24.0109 25.4414L24.0266 25.4425L24.0374 25.443L24.0435 25.4433L24.0469 25.4434L24.0485 25.4435Z" fill="#FFB201"/>
<path d="M38.18 31.5704C47.6163 27.2547 44.1824 13.3456 37.7282 11.1572C35.051 10.2495 32.0178 13.4834 32.0001 15.4566C31.9825 17.4297 34.1682 19.248 33.6706 21.6966C33.1732 24.1452 32.5902 28.272 33.8588 30.202C35.1275 32.1322 36.4351 32.3685 38.18 31.5704Z" fill="#FFB201"/>
<path fill-rule="evenodd" clip-rule="evenodd" d="M31.9513 25.4435C31.9513 25.4435 31.9497 25.4435 31.9167 24.2218C31.8838 23 31.882 23 31.882 23L31.8803 23.0001L31.8765 23.0002L31.8684 23.0006L31.8501 23.0015C31.837 23.0022 31.8219 23.0032 31.805 23.0046C31.7713 23.0075 31.7302 23.0119 31.6827 23.0188C31.5879 23.0325 31.4658 23.0565 31.3252 23.0985C31.0446 23.1824 30.679 23.342 30.3161 23.6458C29.5439 24.2924 29 25.4023 29 27.1093V45H31.3223V27.1093C31.3223 25.9812 31.6562 25.6473 31.7617 25.5589C31.8378 25.4952 31.9111 25.4645 31.9597 25.45C31.9836 25.4428 32 25.4403 32 25.4403C32 25.4403 31.9971 25.4408 31.9891 25.4414L31.9733 25.4425L31.9625 25.443L31.9563 25.4433L31.9531 25.4434L31.9513 25.4435Z" fill="#FFB201"/>
</svg>
