<svg width="56" height="56" viewBox="0 0 56 56" fill="none" xmlns="http://www.w3.org/2000/svg">
<rect width="56" height="56" rx="16" fill="#B5E7E8"/>
<path d="M40.5067 23.9867C44.24 23.6134 46.8533 19.7867 46.48 15.4001C46.1067 11.0134 43.0267 6.53338 39.0133 8.12005C34.9067 9.61338 38.5467 14.6534 38.7333 16.6134C38.92 18.5734 35 24.4534 40.5067 23.9867Z" fill="white"/>
<path d="M33.4133 42.8401C33.4133 39.8534 22.68 39.8534 22.68 42.8401C22.68 45.8267 25.1067 48.1601 28 48.1601C30.8933 48.1601 33.4133 45.8267 33.4133 42.8401Z" fill="white"/>
<path d="M15.4933 23.9867C11.76 23.6134 9.14666 19.7867 9.52 15.4001C9.89333 11.0134 12.9733 6.53338 16.9867 8.12005C21.0933 9.61338 17.4533 14.6534 17.2667 16.6134C17.08 18.4801 21 24.4534 15.4933 23.9867Z" fill="white"/>
<path d="M47.2267 15.3066C46.9467 12.0399 45.36 9.05328 43.2133 7.74661C41.8133 6.90661 40.2267 6.71994 38.64 7.27994C37.6133 7.65328 36.8667 8.30661 36.4933 9.14661C35.7467 10.9199 36.7733 13.5333 37.4267 15.2133C36.4 15.0266 35 14.8399 33.7867 15.4933C32.6667 16.1466 32.0133 17.1733 31.7333 18.6666C31.4533 20.3466 31.8267 22.7733 32.3867 25.5733C33.32 30.6133 34.44 36.8666 31.1733 40.1333C30.1467 39.8533 29.0267 39.7599 28 39.7599C26.9733 39.7599 25.8533 39.8533 24.8267 40.1333C21.56 36.7733 22.68 30.6133 23.6133 25.5733C24.1733 22.7733 24.5467 20.3466 24.2667 18.6666C23.9867 17.1733 23.3333 16.1466 22.2133 15.5866C21 14.9333 19.6 15.0266 18.5733 15.3066C19.2267 13.5333 20.2533 10.9199 19.5067 9.23994C19.1333 8.39994 18.3867 7.74661 17.36 7.37328C15.7733 6.81328 14.1867 6.90661 12.7867 7.83994C10.64 9.14661 9.05333 12.1333 8.77333 15.3999C8.58666 17.7333 9.14666 19.9733 10.36 21.7466C11.6667 23.6133 14.1867 24.7333 16.24 24.9199C17.4533 24.9199 18.2933 24.5466 18.76 23.8933C19.88 22.5866 19.2267 20.5333 18.6667 18.6666C18.48 18.1066 18.2933 17.6399 18.2933 17.1733C19.1333 16.8933 20.5333 16.6133 21.56 17.0799C22.2133 17.3599 22.5867 18.0133 22.7733 18.9466C23.0533 20.3466 22.5867 22.6799 22.12 25.2933C21.1867 30.5199 19.9733 36.8666 23.3333 40.8799C22.4933 41.3466 21.9333 41.9999 21.9333 42.9333C21.9333 46.3866 24.7333 49.1866 28.1867 49.1866C31.64 49.1866 34.44 46.3866 34.44 42.9333C34.44 41.9999 33.88 41.3466 33.04 40.8799C36.3067 36.8666 35.1867 30.5199 34.2533 25.2933C33.7867 22.7733 33.32 20.3466 33.6 18.9466C33.7867 18.0133 34.16 17.3599 34.8133 17.0799C35.7467 16.6133 37.1467 16.8933 38.08 17.1733C37.9867 17.6399 37.8 18.1066 37.7067 18.6666C37.1467 20.5333 36.4933 22.5866 37.6133 23.8933C38.1733 24.5466 39.2933 25.0133 40.88 24.8266C40.7867 24.8266 40.7867 24.8266 40.88 24.8266C40.9733 24.8266 40.9733 24.8266 40.88 24.8266C44.7067 24.4533 47.6933 20.1599 47.2267 15.3066ZM16.4267 16.5199C16.4267 16.5199 16.4267 16.6133 16.4267 16.5199C16.4267 17.2666 16.6133 18.1066 16.9867 19.0399C17.36 20.3466 17.92 22.1199 17.4533 22.6799C17.1733 22.9599 16.52 23.1466 15.68 23.0533C14.0933 22.8666 12.7867 22.0266 11.76 20.6266C10.7333 19.1333 10.2667 17.2666 10.4533 15.3999C10.7333 12.6933 12.04 10.1733 13.72 9.05328C14.28 8.67994 14.9333 8.49328 15.4933 8.49328C15.8667 8.49328 16.3333 8.58661 16.8 8.77328C17.4533 9.05328 17.8267 9.33328 18.0133 9.79994C18.48 10.9199 17.8267 12.6933 17.2667 14.1866C16.8 15.1199 16.52 15.8666 16.4267 16.5199ZM28 47.4133C25.48 47.4133 23.52 45.3599 23.52 42.9333C23.52 42.3733 25.2 41.5333 28 41.5333C29.3067 41.5333 30.52 41.7199 31.36 41.9999C32.0133 42.2799 32.48 42.5599 32.48 42.8399C32.48 45.3599 30.52 47.4133 28 47.4133ZM40.4133 23.1466C39.48 23.2399 38.8267 23.1466 38.64 22.7733C38.1733 22.1199 38.64 20.3466 39.1067 19.1333C39.3867 18.1066 39.6667 17.2666 39.6667 16.6133C39.6667 16.6133 39.6667 16.6133 39.6667 16.5199V16.4266C39.5733 15.7733 39.2933 15.0266 39.0133 14.1866C38.4533 12.6933 37.7067 10.9199 38.2667 9.79994C38.4533 9.33328 38.8267 9.05328 39.48 8.77328C39.9467 8.58661 40.32 8.49328 40.7867 8.49328C41.44 8.49328 42 8.67994 42.56 9.05328C44.24 10.0799 45.5467 12.6933 45.8267 15.3999C45.92 19.4133 43.5867 22.8666 40.4133 23.1466Z" fill="#1EBCB4"/>
</svg>
