<svg width="56" height="56" viewBox="0 0 56 56" fill="none" xmlns="http://www.w3.org/2000/svg">
<rect width="56" height="56" rx="16" fill="#B2E5E9"/>
<path fill-rule="evenodd" clip-rule="evenodd" d="M28 37C28.6047 37 29.1676 37.1789 29.6387 37.4867L31.0011 13L31.75 13.0417L32.4988 13L33.8612 37.4867C34.3324 37.1789 34.8953 37 35.5 37C37.1568 37 38.5 38.3432 38.5 40C38.5 41.6568 37.1568 43 35.5 43C33.8507 43 32.5122 41.6691 32.5001 40.0227L32.3324 37.0091H31.1675L30.9999 40.0227C30.9877 41.6691 29.6492 43 28 43C26.3431 43 25 41.6568 25 40C25 38.3432 26.3431 37 28 37ZM31.75 26.5418L32.2489 35.5091H31.251L31.75 26.5418ZM31.75 24.2761C32.1642 24.2761 32.5 23.9408 32.5 23.5271C32.5 23.1135 32.1642 22.7782 31.75 22.7782C31.3358 22.7782 31 23.1135 31 23.5271C31 23.9408 31.3358 24.2761 31.75 24.2761ZM28 38.5C27.1715 38.5 26.5 39.1716 26.5 40C26.5 40.8284 27.1715 41.5 28 41.5C28.8284 41.5 29.5 40.8284 29.5 40C29.5 39.1716 28.8284 38.5 28 38.5ZM34 40C34 39.1716 34.6715 38.5 35.5 38.5C36.3284 38.5 37 39.1716 37 40C37 40.8284 36.3284 41.5 35.5 41.5C34.6715 41.5 34 40.8284 34 40ZM22 13.1754L20.8641 13.8569L21.25 14.5C20.8641 13.8569 20.8631 13.8575 20.8631 13.8575L20.8619 13.8582L20.8595 13.8597L20.854 13.863L20.8402 13.8717C20.8298 13.8783 20.8169 13.8867 20.8019 13.8968C20.7718 13.9171 20.7327 13.9446 20.6858 13.9801C20.5922 14.051 20.4676 14.1537 20.3219 14.2938C20.03 14.5745 19.6555 15.0035 19.2752 15.6253C18.513 16.8721 17.7439 18.8675 17.5478 21.95C17.488 22.8894 18.0314 23.6811 18.8069 24.0415C18.4631 24.3814 18.25 24.8533 18.25 25.375V41.125C18.25 42.1605 19.0895 43 20.125 43C21.1605 43 22 42.1605 22 41.125V25.375C22 24.7048 21.6484 24.1168 21.1196 23.7852C21.6549 23.3739 22 22.7273 22 22V13.1754ZM19.0448 22.0452C19.222 19.2597 19.8938 17.526 20.5 16.4994V22C20.5 22.4142 20.1642 22.75 19.75 22.75C19.3235 22.75 19.0216 22.4096 19.0448 22.0452ZM20.5 25.4394V25.375C20.5 25.1679 20.3321 25 20.125 25C19.9178 25 19.75 25.1679 19.75 25.375V26.1894L20.5 25.4394ZM20.5 27.5606V28.4394L19.75 29.1894V28.3106L20.5 27.5606ZM20.5 31.4394V30.5606L19.75 31.3106V32.1894L20.5 31.4394ZM20.5 33.5606V41.125C20.5 41.3321 20.3321 41.5 20.125 41.5C19.9178 41.5 19.75 41.3321 19.75 41.125V34.3106L20.5 33.5606Z" fill="#1EBCB4"/>
</svg>
