<svg width="39" height="45" viewBox="0 0 39 45" fill="none" xmlns="http://www.w3.org/2000/svg">
<path fill-rule="evenodd" clip-rule="evenodd" d="M17.5171 15.8278C18.6827 15.8278 18.501 15.684 18.501 18.148C18.501 19.3616 18.5647 27.6069 18.4814 28.056C16.9962 28.1651 15.227 27.9384 13.7679 28.0881C12.9795 28.169 12.9628 28.879 13.0142 29.671C13.1327 31.4949 14.2338 33.1779 15.7402 34.1074C20.0191 36.7477 25.5573 34.2346 25.964 29.8058C26.1619 27.6506 25.3714 28.0845 22.905 28.0777C22.1102 28.0755 21.3154 28.0716 20.5206 28.0693C20.4215 27.7121 20.4949 17.9888 20.4858 16.5157C20.4814 15.8115 20.7587 15.6988 21.4714 15.8541C21.4657 17.566 21.4637 19.278 21.4781 20.99C21.4855 21.8672 21.3734 22.6379 22.3002 22.7414C23.0509 22.8252 23.9149 22.725 24.5929 22.5356C26.9911 21.8654 29.0266 19.7533 29.3207 16.9354C29.6665 13.6233 27.6734 11.278 25.6313 10.2963C25.0819 10.0322 24.3268 9.8044 23.6349 9.72489C23.039 9.65639 21.914 9.53755 21.59 10.1392C21.2986 10.68 21.6396 14.3157 21.4566 15.2031C20.9598 15.4132 20.4165 15.0332 20.0399 15.5742C19.8274 15.8794 19.9075 16.8126 19.9075 17.2533C19.9075 18.132 19.9515 27.6562 19.8916 28.0566L19.1177 28.0664C18.8281 27.1527 19.2987 16.1972 18.9828 15.6301C18.716 15.1511 18.1365 15.2426 17.528 15.2426C17.4365 14.34 17.6263 10.6582 17.4293 10.1962C16.9696 9.11884 14.2361 9.90547 13.385 10.2871C11.3399 11.2042 9.34471 13.6653 9.66188 16.8799C9.94062 19.705 11.9625 21.8501 14.34 22.521C15.0447 22.7199 15.8421 22.8095 16.6224 22.7475C17.5954 22.67 17.5022 21.9531 17.51 21.0426C17.5249 19.3042 17.5219 17.5662 17.5171 15.8278Z" fill="#12AADB"/>
<path fill-rule="evenodd" clip-rule="evenodd" d="M27.7313 36.9778C28.5666 35.9144 30.2351 34.1028 30.6454 32.8453C30.8434 32.2387 30.8115 31.3539 30.3178 31.0274C30.0857 31.1815 29.7111 31.6927 29.4849 31.9392C29.191 32.2595 28.9459 32.5927 28.6484 32.8849C26.3598 35.1313 23.5332 35.2206 22.1256 36.8869C20.83 38.4207 20.6043 39.8715 20.695 42.4083C20.7383 43.6168 20.9928 44.3531 21.854 44.7844C22.8743 45.2953 23.9123 44.8324 24.3059 44.0853C24.6309 43.4685 24.4731 42.7983 25.1591 41.4193C25.6904 40.351 26.7559 39.3194 27.6438 38.6621C28.8508 37.7686 29.6709 37.3946 31.0859 36.7632C32.674 36.0546 33.9929 34.8694 34.6663 33.3205C35.1575 32.1905 35.0985 31.6219 35.2091 30.355C35.3446 28.8042 35.617 28.5774 35.9058 27.4658C34.8027 27.6794 34.1306 28.7001 33.7693 29.7332C33.2433 31.2375 33.5012 31.794 32.4942 32.9199C31.8231 33.6704 31.2308 33.8355 30.486 34.2106C30.1879 34.3607 28.9409 36.2979 27.7313 36.9778Z" fill="#12AADB"/>
<path fill-rule="evenodd" clip-rule="evenodd" d="M18.3168 41.5153C18.3098 35.2149 14.1862 35.964 11.1173 33.5576C10.0248 32.7011 8.96441 31.2018 8.65372 31.0295C7.6907 32.0522 8.57893 33.5281 9.15104 34.3305C9.50951 34.8333 11.1505 36.7877 11.2153 36.946C10.4882 36.5079 9.54188 35.4252 8.99246 34.7536C8.91792 34.6625 8.85842 34.5883 8.76359 34.4579C8.49717 34.0915 8.43601 34.2142 7.70532 33.8406C7.45647 33.7134 7.2337 33.5592 7.03535 33.4108C5.55535 32.3034 5.72453 31.2218 5.21414 29.7213C4.8762 28.7279 4.13675 27.6261 3.07977 27.4727C3.2476 28.0382 3.46648 28.5485 3.60459 29.1886C4.01677 31.0999 3.46112 32.4514 5.0325 34.5345C5.66664 35.3752 6.43155 35.9907 7.50801 36.5663C8.0041 36.8316 8.55605 37.0096 9.05991 37.2653C11.5727 38.5406 13.9357 40.3195 14.4256 43.2664C14.5427 43.9705 14.8165 44.4066 15.2469 44.7092C15.7248 45.0452 16.4847 45.0836 17.047 44.8203C18.2767 44.2446 18.3186 43.1485 18.3168 41.5153Z" fill="#12AADB"/>
<path fill-rule="evenodd" clip-rule="evenodd" d="M3.19154 30.3746C3.10122 28.6894 2.19727 27.7277 1.51467 25.6086C0.969006 23.9145 0.632423 22.0701 0.585009 20.1491C0.486728 16.1728 1.58039 12.7575 3.22132 9.93446C5.93175 5.27166 11.6069 0.578646 19.5119 0.584427C33.4497 0.594559 42.5179 15.1514 36.5678 27.9237C36.1093 28.908 35.8646 29.0041 35.7909 30.4295C35.8356 30.3884 35.8329 30.395 35.8789 30.3389L36.1257 29.9498C39.9534 23.8069 39.8998 15.8957 36.3127 9.68328C33.5278 4.86047 27.6695 0.00217633 19.5119 7.29013e-07C11.3136 -0.00217487 5.49189 4.86551 2.70224 9.67507C-0.509334 15.2122 -0.97922 22.3129 1.94639 28.2234C2.14554 28.6257 2.30585 28.9396 2.51973 29.3309L3.19154 30.3746Z" fill="#12AADB"/>
<path fill-rule="evenodd" clip-rule="evenodd" d="M25.406 3.59932C24.7548 3.75167 24.1897 4.49591 24.2674 5.35757C24.3317 6.07048 25.127 6.70868 25.9579 6.53811C26.6085 6.40459 27.1733 5.60826 27.0956 4.77855C27.0283 4.06017 26.2474 3.40239 25.406 3.59932ZM25.5543 4.12326C25.1519 4.24242 24.8781 4.71403 24.85 5.20696C24.7855 6.33224 26.4134 6.37277 26.5221 4.93799C26.5636 4.39154 26.0984 3.96208 25.5543 4.12326Z" fill="#12AADB"/>
<path fill-rule="evenodd" clip-rule="evenodd" d="M10.5665 4.90877C8.51828 5.43763 9.63975 8.19995 11.2005 7.82339C13.254 7.32785 12.1359 4.50355 10.5665 4.90877ZM10.5488 5.4559C9.3586 5.92098 10.3886 7.59968 11.2769 7.26743C12.3173 6.87837 11.4491 5.10414 10.5488 5.4559Z" fill="#12AADB"/>
<path fill-rule="evenodd" clip-rule="evenodd" d="M6.18579 9.01352C5.51534 9.1231 4.82034 9.89451 5.04225 10.7399C5.19885 11.3366 6.00619 12.0466 6.80865 11.9146C7.45616 11.8082 8.12403 11.0121 7.9279 10.1949C7.78467 9.59807 6.95107 8.88839 6.18579 9.01352ZM6.06081 9.6146C4.88897 10.0668 5.92529 11.5951 6.89453 11.321C7.33939 11.1952 7.61105 10.5914 7.26657 10.1249C7.07112 9.86014 6.52404 9.43583 6.06081 9.6146Z" fill="#12AADB"/>
<path fill-rule="evenodd" clip-rule="evenodd" d="M26.8446 7.12685C26.9848 7.24961 27.1055 7.36113 27.307 7.43L28.4848 5.73223L27.7278 7.75871C27.87 7.87327 27.9922 7.98379 28.1776 8.06696C28.5005 7.86711 29.3103 7.04455 29.8265 6.67638C29.5727 7.15874 28.8267 8.03289 28.6595 8.41194C28.7701 8.5293 28.9152 8.62857 29.065 8.69378L30.6862 6.35408C30.4983 6.27625 30.1972 6.02183 30.0046 5.90354C29.7503 6.03408 28.7534 6.9978 28.5007 7.14183L29.1619 5.31128C29.0133 5.15868 28.62 4.87747 28.4222 4.81201C28.3126 5.09154 27.8442 5.67548 27.6419 5.97764C27.3795 6.36937 27.0984 6.76128 26.8446 7.12685Z" fill="#12AADB"/>
<path fill-rule="evenodd" clip-rule="evenodd" d="M3.06049 13.7343L5.63354 14.8911L5.85859 14.3806L4.8021 13.8761C5.03812 13.0724 5.79798 13.4434 6.40856 13.1484L6.67443 12.5653C6.07796 12.5938 5.62041 12.6806 5.16002 12.8942C5.30448 11.6335 4.18504 11.7661 3.9193 12.0062C3.68759 12.2157 3.16647 13.3358 3.06049 13.7343ZM3.7413 13.4076L4.38524 13.6807C4.5453 13.3416 4.9645 12.6697 4.51595 12.4728C4.08701 12.2844 3.81775 13.0824 3.7413 13.4076Z" fill="#12AADB"/>
<path fill-rule="evenodd" clip-rule="evenodd" d="M15.0793 4.28246L13.9244 4.70851L14.0663 5.15482L14.656 4.94558C15.1799 5.50993 13.7888 6.29539 13.253 5.30332C13.0561 4.93881 12.984 4.40952 13.2587 4.1081C13.6334 3.69685 13.9754 3.80924 14.3438 4.0682L14.8079 3.79332C14.5769 3.12971 13.4586 3.27093 12.9533 3.69343C11.8018 4.65629 12.9977 7.10409 14.7652 6.04911C15.8641 5.3932 15.2947 5.14332 15.0793 4.28246Z" fill="#12AADB"/>
<path fill-rule="evenodd" clip-rule="evenodd" d="M29.4932 9.09616L29.8432 9.50748L30.6294 8.80271C30.9421 9.06875 31.2387 9.43829 31.4551 9.52706C31.9736 9.73958 32.4083 9.3936 32.5708 9.1058C32.908 8.50832 32.3319 7.91444 31.9359 7.57014C31.7715 7.42723 31.6774 7.27239 31.5185 7.1582C31.3311 7.30994 31.1827 7.45844 30.9978 7.62453C30.8138 7.78975 30.6854 7.95994 30.5031 8.12429L29.4932 9.09616ZM31.0001 8.4796L31.3857 8.86039C31.5339 9.0051 31.8124 9.08721 31.9951 8.89141C32.3027 8.56165 31.7696 8.02701 31.5707 7.91121C31.3821 8.08134 31.1242 8.24787 31.0001 8.4796Z" fill="#12AADB"/>
<path fill-rule="evenodd" clip-rule="evenodd" d="M32.6043 13.0973C32.6719 13.3766 33.353 14.8903 33.5022 15.0605L33.907 14.8793L33.2569 13.4144L33.9483 13.1211L34.549 14.4007L34.9646 14.2136L34.3914 12.8872L34.9565 12.6586L35.5958 14.0349L36.0193 13.8477L35.1757 11.9346L32.6043 13.0973Z" fill="#12AADB"/>
<path fill-rule="evenodd" clip-rule="evenodd" d="M2.51117 15.4271C2.94394 15.4956 3.42843 15.627 3.85072 15.7269C4.36007 15.8475 4.87077 15.8629 4.726 16.5004C4.60188 17.0468 4.11338 16.9353 3.65108 16.8234C3.25321 16.7271 2.67548 16.5613 2.28507 16.5228L2.14185 17.0625C3.75768 17.478 4.87151 17.9689 5.20001 16.6151C5.39399 15.8158 5.10543 15.4708 4.45058 15.2798C4.1066 15.1796 2.95183 14.8823 2.65045 14.8838L2.51117 15.4271Z" fill="#12AADB"/>
<path fill-rule="evenodd" clip-rule="evenodd" d="M35.2769 15.8841L33.6205 15.2882C33.6697 15.6561 33.6695 15.9221 33.9738 16.0404C34.2367 16.1427 34.556 16.261 34.808 16.3438C34.7094 16.5319 34.2807 17.026 34.0546 17.1234L34.1825 17.8436C34.4588 17.6959 35.066 16.876 35.4336 16.5895L36.914 17.1335C36.8984 16.9762 36.8734 16.8157 36.8359 16.6787C36.7051 16.201 36.2533 16.4595 35.8601 16.0943C36.3787 15.5594 36.7424 15.4512 36.3732 14.7783L35.2769 15.8841Z" fill="#12AADB"/>
<path fill-rule="evenodd" clip-rule="evenodd" d="M19.5002 4.32254L18.9572 4.2104C18.8656 4.62172 18.6648 4.947 18.1617 4.83729C17.4772 4.68804 17.4024 3.22629 17.9705 2.96323C18.4438 2.74399 18.6778 2.98492 18.8855 3.30088L19.4139 3.15238C19.088 1.94026 16.8049 2.08634 17.0284 4.08497C17.2304 5.89071 19.4858 5.58781 19.5002 4.32254Z" fill="#12AADB"/>
<path fill-rule="evenodd" clip-rule="evenodd" d="M23.6388 4.88565L23.1709 4.63023C22.9644 4.88285 22.8289 5.28397 22.2665 5.05727C21.907 4.91237 21.8248 4.52164 21.905 4.02989C21.9697 3.63368 22.0878 3.27925 22.4677 3.18103C23.1157 3.01357 23.253 3.63088 23.3227 3.73699L23.834 3.70914C23.9077 2.54246 21.653 2.00783 21.3212 3.92938C21.1841 4.72353 21.5112 5.30951 22.0703 5.5175C22.7729 5.77882 23.4781 5.48344 23.6388 4.88565Z" fill="#12AADB"/>
<path fill-rule="evenodd" clip-rule="evenodd" d="M6.87531 7.77575C6.96588 7.99965 7.93851 8.96306 8.2886 9.3594C8.45217 9.54463 8.64183 9.68853 8.79048 9.86177C8.99999 9.67107 10.1446 8.62635 10.2218 8.44782C10.129 8.36105 9.99784 8.25917 9.90659 8.1658C9.65226 8.34377 9.14001 8.83421 8.93162 9.10821C8.72143 9.01522 7.58306 7.74883 7.25967 7.43213L6.87531 7.77575Z" fill="#12AADB"/>
<path fill-rule="evenodd" clip-rule="evenodd" d="M31.2724 11.09L32.3919 12.7205C32.5383 12.6655 32.6388 12.5885 32.7698 12.464C32.6367 12.1327 32.203 11.6392 32.002 11.3062C32.1611 11.1205 33.6029 10.1024 33.867 9.95151C33.7887 9.7654 33.665 9.62262 33.5645 9.4707L31.2724 11.09Z" fill="#12AADB"/>
<path fill-rule="evenodd" clip-rule="evenodd" d="M33.7395 28.9708C33.9807 28.8027 33.9254 28.2653 35.1083 27.4615L35.3167 26.1641C33.9885 26.515 33.586 27.3708 33.7395 28.9708Z" fill="#12AADB"/>
<path fill-rule="evenodd" clip-rule="evenodd" d="M5.2464 28.9862C5.40072 27.4527 4.98312 26.4441 3.67224 26.1719C3.71485 26.4966 3.80301 26.7756 3.84463 27.0997C3.94304 27.8654 4.14305 27.3691 4.8304 28.3176C4.97535 28.5177 5.10989 28.7921 5.2464 28.9862Z" fill="#12AADB"/>
<path fill-rule="evenodd" clip-rule="evenodd" d="M32.6599 30.0422L32.7733 31.9441C33.1302 31.5529 33.192 30.6926 33.357 30.1063C33.4956 29.614 33.6271 29.7199 33.4787 29.1726C33.3671 28.7615 33.378 28.5325 33.3226 28.1182C33.1273 28.3546 32.9921 28.3768 32.816 28.8775C32.6991 29.2096 32.634 29.6605 32.6599 30.0422Z" fill="#12AADB"/>
<path fill-rule="evenodd" clip-rule="evenodd" d="M6.1604 31.9331C6.25795 31.7813 6.71834 28.8837 5.65427 28.1235C5.63682 28.5135 5.62276 28.7849 5.51899 29.1445C5.36355 29.6834 5.46233 29.5511 5.61666 30.0522C5.83079 30.7476 5.87401 31.2737 6.1604 31.9331Z" fill="#12AADB"/>
<path fill-rule="evenodd" clip-rule="evenodd" d="M15.5156 2.87757L16.1363 5.65656L16.6785 5.55424L16.0732 2.76562L15.5156 2.87757Z" fill="#12AADB"/>
</svg>
