<svg width="88" height="29" viewBox="0 0 88 29" fill="none" xmlns="http://www.w3.org/2000/svg">
<path d="M29.4341 23.076H26.0496L22.6923 18.3704L19.3078 23.076H15.8963L20.9865 16.0038L16.1671 9.31673H19.5515L22.6652 13.6647L25.7789 9.31673H29.1904L24.371 16.0313L29.4341 23.076Z" fill="#1A2F58"/>
<path d="M41.1415 9.31673H44.0657V23.076H41.1415V21.0947C40.0404 22.6541 38.461 23.4338 36.4033 23.4338C34.5441 23.4338 32.9557 22.7366 31.638 21.3424C30.3203 19.9297 29.6615 18.2144 29.6615 16.1964C29.6615 14.16 30.3203 12.4447 31.638 11.0504C32.9557 9.65613 34.5441 8.95899 36.4033 8.95899C38.461 8.95899 40.0404 9.72951 41.1415 11.2706V9.31673ZM33.804 19.361C34.6163 20.1866 35.6361 20.5994 36.8636 20.5994C38.091 20.5994 39.1108 20.1866 39.9231 19.361C40.7354 18.5171 41.1415 17.4622 41.1415 16.1964C41.1415 14.9305 40.7354 13.8848 39.9231 13.0593C39.1108 12.2154 38.091 11.7934 36.8636 11.7934C35.6361 11.7934 34.6163 12.2154 33.804 13.0593C32.9918 13.8848 32.5856 14.9305 32.5856 16.1964C32.5856 17.4622 32.9918 18.5171 33.804 19.361Z" fill="#1A2F58"/>
<path d="M58.1959 5.41826L61.1201 4.50098V23.076H58.1959V21.0947C57.0949 22.6541 55.5155 23.4338 53.4577 23.4338C51.5985 23.4338 50.0101 22.7366 48.6924 21.3424C47.3747 19.9297 46.7159 18.2144 46.7159 16.1964C46.7159 14.16 47.3747 12.4447 48.6924 11.0504C50.0101 9.65613 51.5985 8.95899 53.4577 8.95899C55.5155 8.95899 57.0949 9.72951 58.1959 11.2706V5.41826ZM50.8585 19.361C51.6707 20.1866 52.6906 20.5994 53.918 20.5994C55.1454 20.5994 56.1653 20.1866 56.9775 19.361C57.7898 18.5171 58.1959 17.4622 58.1959 16.1964C58.1959 14.9305 57.7898 13.8848 56.9775 13.0593C56.1653 12.2154 55.1454 11.7934 53.918 11.7934C52.6906 11.7934 51.6707 12.2154 50.8585 13.0593C50.0462 13.8848 49.6401 14.9305 49.6401 16.1964C49.6401 17.4622 50.0462 18.5171 50.8585 19.361Z" fill="#1A2F58"/>
<path d="M70.9183 23.4338C68.9327 23.4338 67.245 22.7366 65.8551 21.3424C64.4653 19.9481 63.7703 18.2328 63.7703 16.1964C63.7703 14.16 64.4653 12.4447 65.8551 11.0504C67.245 9.65613 68.9327 8.95899 70.9183 8.95899C72.9219 8.95899 74.6096 9.65613 75.9814 11.0504C77.3713 12.4447 78.0662 14.16 78.0662 16.1964C78.0662 18.2328 77.3713 19.9481 75.9814 21.3424C74.6096 22.7366 72.9219 23.4338 70.9183 23.4338ZM67.9129 19.306C68.7252 20.1315 69.7269 20.5443 70.9183 20.5443C72.1096 20.5443 73.1114 20.1315 73.9237 19.306C74.7359 18.4804 75.1421 17.4439 75.1421 16.1964C75.1421 14.9489 74.7359 13.9123 73.9237 13.0868C73.1114 12.2612 72.1096 11.8484 70.9183 11.8484C69.7269 11.8484 68.7252 12.2612 67.9129 13.0868C67.1006 13.9123 66.6945 14.9489 66.6945 16.1964C66.6945 17.4439 67.1006 18.4804 67.9129 19.306Z" fill="#1A2F58"/>
<path d="M88 12.1787H84.6426V18.7831C84.6426 19.3518 84.769 19.7646 85.0217 20.0215C85.2744 20.26 85.6444 20.3976 86.1318 20.4342C86.6372 20.4526 87.2599 20.4434 88 20.4067V23.076C85.7617 23.3512 84.1553 23.1586 83.1805 22.4981C82.2058 21.8193 81.7185 20.581 81.7185 18.7831V12.1787H79.2275V9.31673H81.7185V5.42744L84.6426 4.54684V9.31673H88V12.1787Z" fill="#1A2F58"/>
<path d="M3.55833 18.4702C4.03384 19.4233 4.71887 20.0724 5.61342 20.4176C6.50329 20.745 7.48872 20.7616 8.56971 20.4672C10.0691 20.0588 11.0489 19.2032 11.509 17.9004L14.201 18.6487C13.42 20.9316 11.7654 22.4173 9.23732 23.1058C7.11021 23.6851 5.21997 23.4971 3.56661 22.5419C1.90858 21.569 0.813273 20.0725 0.28069 18.0523C-0.242549 16.0676 -0.0342539 14.235 0.905576 12.5546C1.84073 10.8565 3.31956 9.73201 5.34206 9.18122C7.25994 8.65892 9.00898 8.91382 10.5892 9.94593C12.1868 10.9733 13.2426 12.4616 13.7565 14.4109C13.8359 14.7121 13.9061 15.1203 13.9672 15.6355L3.55833 18.4702ZM2.9155 16.1382L10.6045 14.0442C10.1277 13.0155 9.46821 12.3214 8.62597 11.962C7.80117 11.5979 6.92673 11.5416 6.00266 11.7933C4.95654 12.0782 4.16186 12.608 3.61861 13.3827C3.07537 14.1574 2.841 15.0759 2.9155 16.1382Z" fill="#6290C8"/>
</svg>
