<svg width="24" height="24" viewBox="0 0 24 24" fill="none" xmlns="http://www.w3.org/2000/svg">
<path d="M2.40332 7.06079L11.9997 11.8584L21.5961 7.06079C21.5606 6.44932 21.2926 5.87457 20.8471 5.45426C20.4016 5.03395 19.8122 4.79988 19.1997 4.79999H4.79972C4.18722 4.79988 3.59786 5.03395 3.15233 5.45426C2.70681 5.87457 2.43885 6.44932 2.40332 7.06079Z" fill="#31B2DC"/>
<path d="M21.6004 9.74161L12.0004 14.5416L2.40039 9.74161V16.8C2.40039 17.4365 2.65325 18.047 3.10333 18.4971C3.55342 18.9472 4.16387 19.2 4.80039 19.2H19.2004C19.8369 19.2 20.4474 18.9472 20.8974 18.4971C21.3475 18.047 21.6004 17.4365 21.6004 16.8V9.74161Z" fill="#31B2DC"/>
</svg>
