<svg width="39" height="45" viewBox="0 0 39 45" fill="none" xmlns="http://www.w3.org/2000/svg">
<path fill-rule="evenodd" clip-rule="evenodd" d="M17.5171 15.8279C18.6827 15.8279 18.501 15.684 18.501 18.1481C18.501 19.3616 18.5647 27.6069 18.4814 28.056C16.9962 28.1651 15.227 27.9384 13.7679 28.0881C12.9795 28.1691 12.9628 28.879 13.0142 29.6711C13.1327 31.495 14.2338 33.178 15.7402 34.1075C20.0191 36.7477 25.5573 34.2346 25.964 29.8059C26.1619 27.6506 25.3714 28.0845 22.905 28.0777C22.1102 28.0756 21.3154 28.0717 20.5206 28.0694C20.4215 27.7122 20.4949 17.9889 20.4858 16.5157C20.4814 15.8116 20.7587 15.6988 21.4714 15.8541C21.4657 17.5661 21.4637 19.2781 21.4781 20.99C21.4855 21.8673 21.3734 22.6379 22.3002 22.7414C23.0509 22.8253 23.9149 22.7251 24.5929 22.5356C26.9911 21.8655 29.0266 19.7533 29.3207 16.9355C29.6665 13.6233 27.6734 11.2781 25.6313 10.2963C25.0819 10.0323 24.3268 9.80446 23.6349 9.72495C23.039 9.65645 21.914 9.53761 21.59 10.1393C21.2986 10.6801 21.6396 14.3158 21.4566 15.2032C20.9598 15.4133 20.4165 15.0332 20.0399 15.5743C19.8274 15.8794 19.9075 16.8126 19.9075 17.2534C19.9075 18.1321 19.9515 27.6563 19.8916 28.0567L19.1177 28.0664C18.8281 27.1527 19.2987 16.1973 18.9828 15.6301C18.716 15.1512 18.1365 15.2426 17.528 15.2426C17.4365 14.3401 17.6263 10.6582 17.4293 10.1963C16.9696 9.1189 14.2361 9.90553 13.385 10.2871C11.3399 11.2042 9.34471 13.6654 9.66188 16.8799C9.94062 19.7051 11.9625 21.8502 14.34 22.5211C15.0447 22.7199 15.8421 22.8096 16.6224 22.7475C17.5954 22.6701 17.5022 21.9531 17.51 21.0427C17.5249 19.3042 17.5219 17.5663 17.5171 15.8279Z" fill="#12AADB"/>
<path fill-rule="evenodd" clip-rule="evenodd" d="M27.7313 36.9778C28.5666 35.9144 30.2351 34.1028 30.6454 32.8453C30.8434 32.2387 30.8115 31.3539 30.3178 31.0274C30.0857 31.1815 29.7111 31.6927 29.4849 31.9392C29.191 32.2595 28.9459 32.5927 28.6484 32.8849C26.3598 35.1313 23.5332 35.2206 22.1256 36.8869C20.83 38.4207 20.6043 39.8715 20.695 42.4083C20.7383 43.6168 20.9928 44.3531 21.854 44.7844C22.8743 45.2953 23.9123 44.8324 24.3059 44.0853C24.6309 43.4685 24.4731 42.7983 25.1591 41.4193C25.6904 40.351 26.7559 39.3194 27.6438 38.6621C28.8508 37.7686 29.6709 37.3946 31.0859 36.7632C32.674 36.0546 33.9929 34.8694 34.6663 33.3205C35.1575 32.1905 35.0985 31.6219 35.2091 30.355C35.3446 28.8042 35.617 28.5774 35.9058 27.4658C34.8027 27.6794 34.1306 28.7001 33.7693 29.7332C33.2433 31.2375 33.5012 31.794 32.4942 32.9199C31.8231 33.6704 31.2308 33.8355 30.486 34.2106C30.1879 34.3607 28.9409 36.2979 27.7313 36.9778Z" fill="#12AADB"/>
<path fill-rule="evenodd" clip-rule="evenodd" d="M18.3168 41.5152C18.3098 35.2147 14.1862 35.9638 11.1173 33.5575C10.0248 32.7009 8.96441 31.2016 8.65372 31.0294C7.6907 32.0521 8.57893 33.528 9.15104 34.3304C9.50951 34.8332 11.1505 36.7876 11.2153 36.9458C10.4882 36.5077 9.54188 35.4251 8.99246 34.7535C8.91792 34.6624 8.85842 34.5882 8.76359 34.4578C8.49717 34.0914 8.43601 34.214 7.70532 33.8405C7.45647 33.7133 7.2337 33.5591 7.03535 33.4107C5.55535 32.3032 5.72453 31.2216 5.21414 29.7212C4.8762 28.7277 4.13675 27.6259 3.07977 27.4725C3.2476 28.0381 3.46648 28.5483 3.60459 29.1885C4.01677 31.0998 3.46112 32.4513 5.0325 34.5344C5.66664 35.3751 6.43155 35.9906 7.50801 36.5662C8.0041 36.8315 8.55605 37.0095 9.05991 37.2652C11.5727 38.5405 13.9357 40.3194 14.4256 43.2663C14.5427 43.9704 14.8165 44.4065 15.2469 44.7091C15.7248 45.045 16.4847 45.0834 17.047 44.8202C18.2767 44.2445 18.3186 43.1483 18.3168 41.5152Z" fill="#12AADB"/>
<path fill-rule="evenodd" clip-rule="evenodd" d="M3.19154 30.3746C3.10122 28.6894 2.19727 27.7277 1.51467 25.6086C0.969006 23.9145 0.632423 22.0701 0.585009 20.1491C0.486728 16.1728 1.58039 12.7575 3.22132 9.93446C5.93175 5.27166 11.6069 0.578646 19.5119 0.584427C33.4497 0.594559 42.5179 15.1514 36.5678 27.9237C36.1093 28.908 35.8646 29.0041 35.7909 30.4295C35.8356 30.3884 35.8329 30.395 35.8789 30.3389L36.1257 29.9498C39.9534 23.8069 39.8998 15.8957 36.3127 9.68328C33.5278 4.86047 27.6695 0.00217633 19.5119 7.29013e-07C11.3136 -0.00217487 5.49189 4.86551 2.70224 9.67507C-0.509334 15.2122 -0.97922 22.3129 1.94639 28.2234C2.14554 28.6257 2.30585 28.9396 2.51973 29.3309L3.19154 30.3746Z" fill="#12AADB"/>
<path fill-rule="evenodd" clip-rule="evenodd" d="M25.406 3.59938C24.7548 3.75173 24.1897 4.49597 24.2674 5.35763C24.3317 6.07055 25.127 6.70874 25.9579 6.53817C26.6085 6.40465 27.1733 5.60832 27.0956 4.77861C27.0283 4.06023 26.2474 3.40245 25.406 3.59938ZM25.5543 4.12332C25.1519 4.24248 24.8781 4.71409 24.85 5.20702C24.7855 6.3323 26.4134 6.37283 26.5221 4.93805C26.5636 4.39161 26.0984 3.96214 25.5543 4.12332Z" fill="#12AADB"/>
<path fill-rule="evenodd" clip-rule="evenodd" d="M10.5665 4.90871C8.51828 5.43757 9.63975 8.19989 11.2005 7.82333C13.254 7.32779 12.1359 4.50349 10.5665 4.90871ZM10.5488 5.45584C9.3586 5.92092 10.3886 7.59962 11.2769 7.26737C12.3173 6.87831 11.4491 5.10408 10.5488 5.45584Z" fill="#12AADB"/>
<path fill-rule="evenodd" clip-rule="evenodd" d="M6.18579 9.01346C5.51534 9.12304 4.82034 9.89445 5.04225 10.7399C5.19885 11.3366 6.00619 12.0465 6.80865 11.9146C7.45616 11.8081 8.12403 11.0121 7.9279 10.1949C7.78467 9.59801 6.95107 8.88833 6.18579 9.01346ZM6.06081 9.61454C4.88897 10.0668 5.92529 11.5951 6.89453 11.321C7.33939 11.1951 7.61105 10.5913 7.26657 10.1248C7.07112 9.86007 6.52404 9.43577 6.06081 9.61454Z" fill="#12AADB"/>
<path fill-rule="evenodd" clip-rule="evenodd" d="M26.8446 7.1266C26.9848 7.24937 27.1055 7.36088 27.307 7.42976L28.4848 5.73198L27.7278 7.75846C27.87 7.87302 27.9922 7.98354 28.1776 8.06671C28.5005 7.86687 29.3103 7.04431 29.8265 6.67613C29.5727 7.15849 28.8267 8.03265 28.6595 8.4117C28.7701 8.52906 28.9152 8.62833 29.065 8.69353L30.6862 6.35383C30.4983 6.27601 30.1972 6.02159 30.0046 5.9033C29.7503 6.03383 28.7534 6.99756 28.5007 7.14158L29.1619 5.31104C29.0133 5.15844 28.62 4.87722 28.4222 4.81177C28.3126 5.0913 27.8442 5.67523 27.6419 5.97739C27.3795 6.36912 27.0984 6.76104 26.8446 7.1266Z" fill="#12AADB"/>
<path fill-rule="evenodd" clip-rule="evenodd" d="M3.06049 13.7342L5.63354 14.891L5.85859 14.3805L4.8021 13.876C5.03812 13.0724 5.79798 13.4434 6.40856 13.1483L6.67443 12.5652C6.07796 12.5938 5.62041 12.6806 5.16002 12.8941C5.30448 11.6334 4.18504 11.766 3.9193 12.0061C3.68759 12.2156 3.16647 13.3358 3.06049 13.7342ZM3.7413 13.4076L4.38524 13.6806C4.5453 13.3415 4.9645 12.6696 4.51595 12.4727C4.08701 12.2844 3.81775 13.0824 3.7413 13.4076Z" fill="#12AADB"/>
<path fill-rule="evenodd" clip-rule="evenodd" d="M15.0793 4.28222L13.9244 4.70826L14.0663 5.15457L14.656 4.94534C15.1799 5.50969 13.7888 6.29515 13.253 5.30307C13.0561 4.93857 12.984 4.40927 13.2587 4.10786C13.6334 3.69661 13.9754 3.80899 14.3438 4.06795L14.8079 3.79308C14.5769 3.12946 13.4586 3.27069 12.9533 3.69319C11.8018 4.65605 12.9977 7.10385 14.7652 6.04887C15.8641 5.39296 15.2947 5.14307 15.0793 4.28222Z" fill="#12AADB"/>
<path fill-rule="evenodd" clip-rule="evenodd" d="M29.4932 9.09592L29.8432 9.50723L30.6294 8.80246C30.9421 9.06851 31.2387 9.43805 31.4551 9.52681C31.9736 9.73934 32.4083 9.39336 32.5708 9.10556C32.908 8.50807 32.3319 7.9142 31.9359 7.56989C31.7715 7.42699 31.6774 7.27215 31.5185 7.15796C31.3311 7.30969 31.1827 7.45819 30.9978 7.62428C30.8138 7.7895 30.6854 7.9597 30.5031 8.12405L29.4932 9.09592ZM31.0001 8.47936L31.3857 8.86015C31.5339 9.00486 31.8124 9.08697 31.9951 8.89117C32.3027 8.56141 31.7696 8.02677 31.5707 7.91097C31.3821 8.0811 31.1242 8.24762 31.0001 8.47936Z" fill="#12AADB"/>
<path fill-rule="evenodd" clip-rule="evenodd" d="M32.6043 13.097C32.6719 13.3763 33.353 14.8901 33.5022 15.0602L33.907 14.8791L33.2569 13.4142L33.9483 13.1208L34.549 14.4005L34.9646 14.2134L34.3914 12.8869L34.9565 12.6584L35.5958 14.0346L36.0193 13.8475L35.1757 11.9343L32.6043 13.097Z" fill="#12AADB"/>
<path fill-rule="evenodd" clip-rule="evenodd" d="M2.51117 15.427C2.94394 15.4955 3.42843 15.6269 3.85072 15.7268C4.36007 15.8473 4.87077 15.8628 4.726 16.5003C4.60188 17.0467 4.11338 16.9351 3.65108 16.8232C3.25321 16.727 2.67548 16.5612 2.28507 16.5226L2.14185 17.0624C3.75768 17.4779 4.87151 17.9688 5.20001 16.615C5.39399 15.8156 5.10543 15.4706 4.45058 15.2797C4.1066 15.1794 2.95183 14.8822 2.65045 14.8837L2.51117 15.427Z" fill="#12AADB"/>
<path fill-rule="evenodd" clip-rule="evenodd" d="M35.2769 15.8844L33.6205 15.2885C33.6697 15.6564 33.6695 15.9223 33.9738 16.0407C34.2367 16.1429 34.556 16.2612 34.808 16.344C34.7094 16.5321 34.2807 17.0262 34.0546 17.1236L34.1825 17.8439C34.4588 17.6962 35.066 16.8763 35.4336 16.5898L36.914 17.1337C36.8984 16.9765 36.8734 16.8159 36.8359 16.6789C36.7051 16.2012 36.2533 16.4597 35.8601 16.0946C36.3787 15.5597 36.7424 15.4514 36.3732 14.7786L35.2769 15.8844Z" fill="#12AADB"/>
<path fill-rule="evenodd" clip-rule="evenodd" d="M19.5002 4.32272L18.9572 4.21059C18.8656 4.6219 18.6648 4.94718 18.1617 4.83747C17.4772 4.68822 17.4024 3.22647 17.9705 2.96341C18.4438 2.74417 18.6778 2.9851 18.8855 3.30106L19.4139 3.15256C19.088 1.94045 16.8049 2.08652 17.0284 4.08515C17.2304 5.89089 19.4858 5.58799 19.5002 4.32272Z" fill="#12AADB"/>
<path fill-rule="evenodd" clip-rule="evenodd" d="M23.6388 4.88558L23.1709 4.63017C22.9644 4.88279 22.8289 5.2839 22.2665 5.05721C21.907 4.91231 21.8248 4.52158 21.905 4.02983C21.9697 3.63362 22.0878 3.27918 22.4677 3.18097C23.1157 3.01351 23.253 3.63082 23.3227 3.73693L23.834 3.70908C23.9077 2.5424 21.653 2.00777 21.3212 3.92932C21.1841 4.72347 21.5112 5.30945 22.0703 5.51744C22.7729 5.77876 23.4781 5.48338 23.6388 4.88558Z" fill="#12AADB"/>
<path fill-rule="evenodd" clip-rule="evenodd" d="M6.87531 7.77575C6.96588 7.99965 7.93851 8.96306 8.2886 9.3594C8.45217 9.54463 8.64183 9.68853 8.79048 9.86177C8.99999 9.67107 10.1446 8.62635 10.2218 8.44782C10.129 8.36105 9.99784 8.25917 9.90659 8.1658C9.65226 8.34377 9.14001 8.83421 8.93162 9.10821C8.72143 9.01522 7.58306 7.74883 7.25967 7.43213L6.87531 7.77575Z" fill="#12AADB"/>
<path fill-rule="evenodd" clip-rule="evenodd" d="M31.2724 11.0902L32.3919 12.7206C32.5383 12.6656 32.6388 12.5886 32.7698 12.4641C32.6367 12.1328 32.203 11.6393 32.002 11.3063C32.1611 11.1206 33.6029 10.1026 33.867 9.95163C33.7887 9.76553 33.665 9.62274 33.5645 9.47083L31.2724 11.0902Z" fill="#12AADB"/>
<path fill-rule="evenodd" clip-rule="evenodd" d="M33.7395 28.971C33.9807 28.8029 33.9254 28.2654 35.1083 27.4616L35.3167 26.1642C33.9885 26.5152 33.586 27.371 33.7395 28.971Z" fill="#12AADB"/>
<path fill-rule="evenodd" clip-rule="evenodd" d="M5.2464 28.9863C5.40072 27.4529 4.98312 26.4443 3.67224 26.172C3.71485 26.4967 3.80301 26.7758 3.84463 27.0999C3.94304 27.8655 4.14305 27.3692 4.8304 28.3178C4.97535 28.5178 5.10989 28.7922 5.2464 28.9863Z" fill="#12AADB"/>
<path fill-rule="evenodd" clip-rule="evenodd" d="M32.6599 30.0421L32.7733 31.944C33.1302 31.5528 33.192 30.6925 33.357 30.1062C33.4956 29.6139 33.6271 29.7198 33.4787 29.1725C33.3671 28.7614 33.378 28.5323 33.3226 28.118C33.1273 28.3545 32.9921 28.3766 32.816 28.8774C32.6991 29.2094 32.634 29.6604 32.6599 30.0421Z" fill="#12AADB"/>
<path fill-rule="evenodd" clip-rule="evenodd" d="M6.1604 31.9329C6.25795 31.7812 6.71834 28.8836 5.65427 28.1234C5.63682 28.5133 5.62276 28.7847 5.51899 29.1444C5.36355 29.6833 5.46233 29.551 5.61666 30.0521C5.83079 30.7475 5.87401 31.2736 6.1604 31.9329Z" fill="#12AADB"/>
<path fill-rule="evenodd" clip-rule="evenodd" d="M15.5156 2.87745L16.1363 5.65643L16.6785 5.55412L16.0732 2.7655L15.5156 2.87745Z" fill="#12AADB"/>
</svg>
