<svg width="20" height="20" viewBox="0 0 20 20" fill="none" xmlns="http://www.w3.org/2000/svg">
<path fill-rule="evenodd" clip-rule="evenodd" d="M4.29376 4.29302C4.48129 4.10555 4.7356 4.00023 5.00076 4.00023C5.26593 4.00023 5.52024 4.10555 5.70776 4.29302L10.0008 8.58602L14.2938 4.29302C14.386 4.19751 14.4964 4.12133 14.6184 4.06892C14.7404 4.01651 14.8716 3.98892 15.0044 3.98777C15.1371 3.98662 15.2688 4.01192 15.3917 4.0622C15.5146 4.11248 15.6263 4.18673 15.7202 4.28062C15.8141 4.37452 15.8883 4.48617 15.9386 4.60907C15.9889 4.73196 16.0142 4.86364 16.013 4.99642C16.0119 5.1292 15.9843 5.26042 15.9319 5.38242C15.8795 5.50443 15.8033 5.61477 15.7078 5.70702L11.4148 10L15.7078 14.293C15.8899 14.4816 15.9907 14.7342 15.9884 14.9964C15.9862 15.2586 15.881 15.5094 15.6956 15.6948C15.5102 15.8802 15.2594 15.9854 14.9972 15.9877C14.735 15.99 14.4824 15.8892 14.2938 15.707L10.0008 11.414L5.70776 15.707C5.51916 15.8892 5.26656 15.99 5.00436 15.9877C4.74216 15.9854 4.49135 15.8802 4.30594 15.6948C4.12054 15.5094 4.01537 15.2586 4.01309 14.9964C4.01081 14.7342 4.11161 14.4816 4.29376 14.293L8.58676 10L4.29376 5.70702C4.10629 5.51949 4.00098 5.26518 4.00098 5.00002C4.00098 4.73486 4.10629 4.48055 4.29376 4.29302Z" fill="#0B304F"/>
</svg>
