<svg width="52" height="52" viewBox="0 0 52 52" fill="none" xmlns="http://www.w3.org/2000/svg">
<rect width="52" height="52" rx="16" fill="white" fill-opacity="0.85"/>
<path d="M36.1238 17.5297C35.5532 16.9625 34.8758 16.5125 34.1301 16.2055C33.3845 15.8985 32.5853 15.7405 31.7782 15.7405C30.9711 15.7405 30.1719 15.8985 29.4263 16.2055C28.6806 16.5125 28.0032 16.9625 27.4326 17.5297L26.2484 18.7063L25.0643 17.5297C23.9118 16.3845 22.3486 15.7411 20.7187 15.7411C19.0888 15.7411 17.5256 16.3845 16.3731 17.5297C15.2205 18.6749 14.5731 20.2282 14.5731 21.8477C14.5731 23.4673 15.2205 25.0205 16.3731 26.1657L17.5572 27.3424L26.2484 35.9784L34.9397 27.3424L36.1238 26.1657C36.6946 25.5988 37.1475 24.9256 37.4564 24.1847C37.7654 23.4438 37.9244 22.6497 37.9244 21.8477C37.9244 21.0457 37.7654 20.2516 37.4564 19.5107C37.1475 18.7698 36.6946 18.0967 36.1238 17.5297Z" fill="url(#paint0_linear_116_7958)"/>
<g filter="url(#filter0_b_116_7958)">
<path d="M23.3298 30.5297C23.108 30.5295 22.8901 30.471 22.6981 30.36C22.5061 30.249 22.3466 30.0894 22.2357 29.8973L20.0791 26.0206L18.7004 28.0886C18.5817 28.2597 18.4227 28.3989 18.2373 28.4938C18.052 28.5886 17.8461 28.6363 17.6379 28.6325H11.946C11.6106 28.6325 11.2888 28.4992 11.0516 28.262C10.8144 28.0248 10.6812 27.7031 10.6812 27.3677C10.6812 27.0322 10.8144 26.7105 11.0516 26.4733C11.2888 26.2361 11.6106 26.1028 11.946 26.1028H16.9612L19.1178 22.8712C19.2383 22.6911 19.403 22.545 19.5962 22.4469C19.7893 22.3488 20.0044 22.3019 20.2209 22.3108C20.4374 22.3197 20.648 22.384 20.8324 22.4976C21.0169 22.6113 21.1691 22.7704 21.2744 22.9597L23.3298 26.7352L26.6374 21.0435C26.7504 20.8476 26.9139 20.6857 27.1108 20.5744C27.3077 20.4632 27.5307 20.4068 27.7568 20.4111C27.9776 20.4124 28.1941 20.4715 28.3849 20.5824C28.5758 20.6934 28.7342 20.8523 28.8446 21.0435L31.874 26.1028L33.1388 25.1036C33.363 24.9296 33.6392 24.836 33.923 24.838H39.773C40.1085 24.838 40.4302 24.9712 40.6674 25.2084C40.9046 25.4456 41.0379 25.7674 41.0379 26.1028C41.0379 26.4383 40.9046 26.76 40.6674 26.9972C40.4302 27.2344 40.1085 27.3677 39.773 27.3677H34.3657L32.3103 28.993C32.1687 29.1095 32.0035 29.1938 31.826 29.2401C31.6486 29.2863 31.4632 29.2935 31.2827 29.261C31.1022 29.2285 30.931 29.1572 30.7808 29.0519C30.6306 28.9467 30.5052 28.81 30.413 28.6515L27.7568 24.1676L24.4239 29.8973C24.313 30.0894 24.1535 30.249 23.9615 30.36C23.7695 30.471 23.5516 30.5295 23.3298 30.5297Z" fill="white" fill-opacity="0.2"/>
</g>
<defs>
<filter id="filter0_b_116_7958" x="-14.3188" y="-4.58917" width="80.3568" height="60.1189" filterUnits="userSpaceOnUse" color-interpolation-filters="sRGB">
<feFlood flood-opacity="0" result="BackgroundImageFix"/>
<feGaussianBlur in="BackgroundImage" stdDeviation="12.5"/>
<feComposite in2="SourceAlpha" operator="in" result="effect1_backgroundBlur_116_7958"/>
<feBlend mode="normal" in="SourceGraphic" in2="effect1_backgroundBlur_116_7958" result="shape"/>
</filter>
<linearGradient id="paint0_linear_116_7958" x1="14.5731" y1="25.1849" x2="37.3646" y2="25.3022" gradientUnits="userSpaceOnUse">
<stop stop-color="#5AA1FF"/>
<stop offset="1" stop-color="#A2D0FF"/>
</linearGradient>
</defs>
</svg>
