<svg width="52" height="52" viewBox="0 0 52 52" fill="none" xmlns="http://www.w3.org/2000/svg">
<rect width="52" height="52" rx="16" fill="white" fill-opacity="0.85"/>
<path d="M36.2594 30.3508C36.2594 34.5422 32.8617 37.94 28.6703 37.94C24.4789 37.94 22.627 33.8454 22.627 29.654C22.627 25.4627 24.4789 22.7617 28.6703 22.7617C32.8617 22.7617 36.2594 26.1595 36.2594 30.3508Z" fill="url(#paint0_linear_116_7949)"/>
<g filter="url(#filter0_b_116_7949)">
<path d="M16.0216 16.8628C16.0216 14.8458 17.6566 13.2108 19.6735 13.2108H27.213C29.2299 13.2108 30.865 14.8458 30.865 16.8628V35.1225C30.865 37.1394 29.2299 38.7744 27.213 38.7744H19.6735C17.6566 38.7744 16.0216 37.1394 16.0216 35.1225V16.8628Z" fill="#EDEDED" fill-opacity="0.37"/>
</g>
<path d="M21.7941 18.9832C21.7941 19.8941 21.0557 20.6325 20.1448 20.6325C19.2339 20.6325 18.4955 19.8941 18.4955 18.9832C18.4955 18.0724 19.2339 17.334 20.1448 17.334C21.0557 17.334 21.7941 18.0724 21.7941 18.9832Z" fill="white"/>
<path d="M27.5665 18.9833C27.5665 19.8941 26.8281 20.6325 25.9172 20.6325C25.0063 20.6325 24.2679 19.8941 24.2679 18.9833C24.2679 18.0724 25.0063 17.334 25.9172 17.334C26.8281 17.334 27.5665 18.0724 27.5665 18.9833Z" fill="white"/>
<path d="M21.794 25.5803C21.794 26.4912 21.0556 27.2296 20.1448 27.2296C19.2339 27.2296 18.4955 26.4912 18.4955 25.5803C18.4955 24.6695 19.2339 23.9311 20.1448 23.9311C21.0556 23.9311 21.794 24.6695 21.794 25.5803Z" fill="white"/>
<path d="M27.5665 25.5803C27.5665 26.4912 26.8281 27.2296 25.9172 27.2296C25.0063 27.2296 24.2679 26.4912 24.2679 25.5803C24.2679 24.6695 25.0063 23.9311 25.9172 23.9311C26.8281 23.9311 27.5665 24.6695 27.5665 25.5803Z" fill="white"/>
<path d="M21.794 32.1773C21.794 33.0882 21.0556 33.8266 20.1448 33.8266C19.2339 33.8266 18.4955 33.0882 18.4955 32.1773C18.4955 31.2665 19.2339 30.5281 20.1448 30.5281C21.0556 30.5281 21.794 31.2665 21.794 32.1773Z" fill="white"/>
<path d="M27.5665 32.1773C27.5665 33.0882 26.8281 33.8266 25.9172 33.8266C25.0063 33.8266 24.2679 33.0882 24.2679 32.1773C24.2679 31.2665 25.0063 30.5281 25.9172 30.5281C26.8281 30.5281 27.5665 31.2665 27.5665 32.1773Z" fill="white"/>
<defs>
<filter id="filter0_b_116_7949" x="-8.97839" y="-11.7892" width="64.8434" height="75.5636" filterUnits="userSpaceOnUse" color-interpolation-filters="sRGB">
<feFlood flood-opacity="0" result="BackgroundImageFix"/>
<feGaussianBlur in="BackgroundImage" stdDeviation="12.5"/>
<feComposite in2="SourceAlpha" operator="in" result="effect1_backgroundBlur_116_7949"/>
<feBlend mode="normal" in="SourceGraphic" in2="effect1_backgroundBlur_116_7949" result="shape"/>
</filter>
<linearGradient id="paint0_linear_116_7949" x1="22.627" y1="29.8449" x2="35.9328" y2="29.8982" gradientUnits="userSpaceOnUse">
<stop stop-color="#47C2FF"/>
<stop offset="1" stop-color="#63CBFE" stop-opacity="0.65"/>
</linearGradient>
</defs>
</svg>
